<svg width="368" height="298" viewBox="0 0 368 298" fill="none" xmlns="http://www.w3.org/2000/svg">
<path d="M37.0003 152.373C38.7583 231.642 102.091 294.249 180.627 296C181.07 296.006 181.509 295.924 181.919 295.759C182.33 295.593 182.703 295.348 183.018 295.036C183.332 294.725 183.581 294.354 183.751 293.946C183.921 293.537 184.007 293.099 184.006 292.656V283.45C258.256 283.45 318.45 223.256 318.45 149.006C318.45 74.7556 258.272 14.554 184.006 14.5579V5.33991C184.007 4.89759 183.921 4.45939 183.751 4.05092C183.581 3.64245 183.332 3.27191 183.017 2.96097C182.703 2.65003 182.329 2.40493 181.919 2.24C181.508 2.07506 181.069 1.99361 180.627 2.00039C143.972 2.8 108.947 17.3052 82.4585 42.6554C82.1416 42.9633 81.889 43.3312 81.7156 43.7377C81.5422 44.1442 81.4515 44.5811 81.4485 45.023C81.4456 45.4649 81.5306 45.9029 81.6986 46.3117C81.8666 46.7204 82.1143 47.0916 82.4272 47.4037L88.9453 53.9376C76.444 66.4086 66.5303 81.2269 59.7736 97.5411C53.0169 113.855 49.5505 131.344 49.5735 149.002H40.3476C39.9046 149.001 39.4658 149.089 39.0569 149.259C38.648 149.43 38.277 149.68 37.9655 149.995C37.6541 150.31 37.4084 150.684 37.2426 151.095C37.0769 151.506 36.9946 151.946 37.0003 152.389" fill="#FFB26E"/>
<mask id="mask0" mask-type="alpha" maskUnits="userSpaceOnUse" x="37" y="2" width="282" height="294">
<path d="M37.0003 152.373C38.7583 231.642 102.091 294.249 180.627 296C181.07 296.006 181.509 295.924 181.919 295.759C182.33 295.593 182.703 295.348 183.018 295.036C183.332 294.725 183.581 294.354 183.751 293.946C183.921 293.537 184.007 293.099 184.006 292.656V283.45C258.256 283.45 318.45 223.256 318.45 149.006C318.45 74.7556 258.272 14.554 184.006 14.5579V5.33991C184.007 4.89759 183.921 4.45939 183.751 4.05092C183.581 3.64245 183.332 3.27191 183.017 2.96097C182.703 2.65003 182.329 2.40493 181.919 2.24C181.508 2.07506 181.069 1.99361 180.627 2.00039C143.972 2.8 108.947 17.3052 82.4585 42.6554C82.1416 42.9633 81.889 43.3312 81.7156 43.7377C81.5422 44.1442 81.4515 44.5811 81.4485 45.023C81.4456 45.4649 81.5306 45.9029 81.6986 46.3117C81.8666 46.7204 82.1143 47.0916 82.4272 47.4037L88.9453 53.9376C76.444 66.4086 66.5303 81.2269 59.7736 97.5411C53.0169 113.855 49.5505 131.344 49.5735 149.002H40.3476C39.9046 149.001 39.4658 149.089 39.0569 149.259C38.648 149.43 38.277 149.68 37.9655 149.995C37.6541 150.31 37.4084 150.684 37.2426 151.095C37.0769 151.506 36.9946 151.946 37.0003 152.389" fill="#FFE84D"/>
</mask>
<g mask="url(#mask0)">
<path d="M37.0003 152.373C38.7583 231.642 102.091 294.249 180.627 296C181.07 296.006 181.509 295.924 181.919 295.759C182.33 295.593 182.703 295.348 183.018 295.036C183.332 294.725 183.581 294.354 183.751 293.946C183.921 293.537 184.007 293.099 184.006 292.656V283.45C258.256 283.45 318.45 223.256 318.45 149.006C318.45 74.7556 258.272 14.554 184.006 14.5579V5.33991C184.007 4.89759 183.921 4.45939 183.751 4.05092C183.581 3.64245 183.332 3.27191 183.017 2.96097C182.703 2.65003 182.329 2.40493 181.919 2.24C181.508 2.07506 181.069 1.99361 180.627 2.00039C143.972 2.8 108.947 17.3052 82.4585 42.6554C82.1416 42.9633 81.889 43.3312 81.7156 43.7377C81.5422 44.1442 81.4515 44.5811 81.4485 45.023C81.4456 45.4649 81.5306 45.9029 81.6986 46.3117C81.8666 46.7204 82.1143 47.0916 82.4272 47.4037L88.9453 53.9376C76.444 66.4086 66.5303 81.2269 59.7736 97.5411C53.0169 113.855 49.5505 131.344 49.5735 149.002H40.3476C39.9046 149.001 39.4658 149.089 39.0569 149.259C38.648 149.43 38.277 149.68 37.9655 149.995C37.6541 150.31 37.4084 150.684 37.2426 151.095C37.0769 151.506 36.9946 151.946 37.0003 152.389" fill="#FFB26E"/>
<path d="M226.062 229.449L221.902 231.062L214.791 103.559L47.7487 113.205L27.1112 158.2L52.4617 253.751L214.317 242.179C215.733 242.077 217.1 241.613 218.287 240.832C219.473 240.05 220.44 238.978 221.094 237.717V237.717L226.062 229.449Z" fill="black" stroke="black" stroke-width="1.2" stroke-linecap="round" stroke-linejoin="round"/>
<path d="M219.053 234.378L57.1983 245.95L31.8478 150.399L52.4853 105.404L219.528 95.7581L226.78 225.619C226.9 227.801 226.156 229.942 224.711 231.581C223.265 233.22 221.233 234.224 219.053 234.378V234.378Z" fill="white" stroke="black" stroke-width="1.2" stroke-linecap="round" stroke-linejoin="round"/>
<path d="M219.528 95.7581L52.4852 105.404L65.8276 76.3017L209.588 67.6135C210.682 67.5472 211.779 67.6979 212.815 68.057C213.851 68.416 214.806 68.9764 215.625 69.7058C216.444 70.4351 217.11 71.3192 217.586 72.307C218.062 73.2949 218.338 74.3671 218.398 75.4619L219.528 95.7581Z" fill="black" stroke="black" stroke-width="1.2" stroke-linecap="round" stroke-linejoin="round"/>
<path d="M90.668 159.99C92.1402 158.306 92.9124 156.123 92.8263 153.888C92.6694 149.383 89.063 145.678 84.7307 145.584C79.9902 145.482 76.1837 149.508 76.3053 154.394C76.3323 155.739 76.671 157.059 77.2947 158.251C77.9185 159.442 78.8103 160.473 79.8999 161.261L83.7221 189.288C83.8824 190.676 84.5776 191.946 85.66 192.829C86.7424 193.712 88.1266 194.139 89.5182 194.017V194.017C92.4928 193.707 94.6197 190.877 94.2273 187.809L90.668 159.99Z" fill="black" stroke="black" stroke-width="1.2" stroke-miterlimit="10"/>
<path d="M111.981 207.599L137.237 205.927L135.012 169.522L109.383 171.484L111.981 207.599Z" fill="#FFB26E"/>
<path d="M141.695 205.742L166.951 204.071L164.216 159.385L139.097 160.449L141.695 205.742Z" fill="#FFB26E"/>
<path d="M172.037 203.67L197.332 201.999L194.209 134.431L168.066 135.919L172.037 203.67Z" fill="#FFB26E"/>
<path d="M201.378 88.353C204.675 88.353 207.347 85.6807 207.347 82.3843C207.347 79.0878 204.675 76.4155 201.378 76.4155C198.082 76.4155 195.41 79.0878 195.41 82.3843C195.41 85.6807 198.082 88.353 201.378 88.353Z" fill="white" stroke="black" stroke-width="1.2" stroke-linecap="round" stroke-linejoin="round"/>
<path d="M184.124 89.3733C187.42 89.3733 190.092 86.701 190.092 83.4045C190.092 80.1081 187.42 77.4358 184.124 77.4358C180.827 77.4358 178.155 80.1081 178.155 83.4045C178.155 86.701 180.827 89.3733 184.124 89.3733Z" fill="white" stroke="black" stroke-width="1.2" stroke-linecap="round" stroke-linejoin="round"/>
<path d="M166.865 90.1857C170.161 90.1857 172.834 87.5134 172.834 84.2169C172.834 80.9205 170.161 78.2482 166.865 78.2482C163.568 78.2482 160.896 80.9205 160.896 84.2169C160.896 87.5134 163.568 90.1857 166.865 90.1857Z" fill="#FFB26E" stroke="black" stroke-width="1.2" stroke-linecap="round" stroke-linejoin="round"/>
<path d="M121.685 188.703L125.586 184.245V178.653H121.685V188.703Z" fill="black" stroke="black" stroke-width="1.2" stroke-linecap="round" stroke-linejoin="round"/>
<path d="M148.566 182.436L152.745 177.284L151.211 153.413L146.204 153.566L148.566 182.436Z" fill="black" stroke="black" stroke-width="1.2" stroke-linecap="round" stroke-linejoin="round"/>
<path d="M30.4979 164.067C28.3953 164.067 26.3283 163.524 24.497 162.491C22.6658 161.458 21.1323 159.97 20.045 158.17C18.9577 156.37 18.3535 154.321 18.2908 152.219C18.2281 150.117 18.7092 148.035 19.6873 146.174C20.6654 144.313 22.1075 142.735 23.8739 141.595C25.6404 140.455 27.6714 139.79 29.7702 139.664C31.8691 139.539 33.9647 139.958 35.8542 140.88C37.7437 141.802 39.3632 143.197 40.5557 144.929L60.6555 131.735C56.7205 125.839 51.1432 121.226 44.6135 118.466C38.0838 115.707 30.8884 114.922 23.9175 116.21C16.9466 117.497 10.5061 120.8 5.39295 125.71C0.279773 130.62 -3.28173 136.921 -4.8509 143.834C-6.42008 150.747 -5.92806 157.968 -3.43574 164.605C-0.943408 171.241 3.43986 177.001 9.17175 181.172C14.9036 185.343 21.7326 187.742 28.8137 188.072C35.8948 188.402 42.9173 186.649 49.0124 183.029L36.4941 162.482C34.6675 163.523 32.6006 164.07 30.4979 164.067V164.067Z" fill="#FFB26E" stroke="black" stroke-width="1.2" stroke-linecap="round" stroke-linejoin="round"/>
<path d="M66.7577 151.851C66.7594 158.141 65.1243 164.323 62.013 169.789C58.9016 175.256 54.4213 179.819 49.0123 183.029L36.494 162.482C37.9698 161.649 39.2558 160.517 40.2703 159.16C41.2848 157.803 42.0055 156.249 42.3865 154.597C42.7675 152.946 42.8004 151.234 42.4831 149.569C42.1659 147.904 41.5054 146.324 40.5438 144.929L60.6555 131.735C64.6415 137.686 66.7658 144.689 66.7577 151.851V151.851Z" fill="black" stroke="black" stroke-width="1.2" stroke-miterlimit="10"/>
<path d="M112.699 215.788L162.615 213.281" stroke="black" stroke-width="1.2" stroke-linecap="round" stroke-linejoin="round"/>
<path d="M113.256 221.224L138.783 219.83" stroke="black" stroke-width="1.2" stroke-linecap="round" stroke-linejoin="round"/>
<path d="M75.0261 124.495L126.587 121.336" stroke="black" stroke-width="1.2" stroke-linecap="round" stroke-linejoin="round"/>
<path d="M75.5676 130.319L108.731 128.486" stroke="black" stroke-width="1.2" stroke-linecap="round" stroke-linejoin="round"/>
<path d="M76.2976 136.464L100.804 134.973" stroke="black" stroke-width="1.2" stroke-linecap="round" stroke-linejoin="round"/>
</g>
<path d="M37.0003 152.373C38.7583 231.642 102.091 294.249 180.627 296C181.07 296.006 181.509 295.924 181.919 295.759C182.33 295.593 182.703 295.348 183.018 295.036C183.332 294.725 183.581 294.354 183.751 293.946C183.921 293.537 184.007 293.099 184.006 292.656V283.45C258.256 283.45 318.45 223.256 318.45 149.006C318.45 74.7556 258.272 14.554 184.006 14.5579V5.33991C184.007 4.89759 183.921 4.45939 183.751 4.05092C183.581 3.64245 183.332 3.27191 183.017 2.96097C182.703 2.65003 182.329 2.40493 181.919 2.24C181.508 2.07506 181.069 1.99361 180.627 2.00039C143.972 2.8 108.947 17.3052 82.4585 42.6554C82.1416 42.9633 81.889 43.3312 81.7156 43.7377C81.5422 44.1442 81.4515 44.5811 81.4485 45.023C81.4456 45.4649 81.5306 45.9029 81.6986 46.3117C81.8666 46.7204 82.1143 47.0916 82.4272 47.4037L88.9453 53.9376C76.444 66.4086 66.5303 81.2269 59.7736 97.5411C53.0169 113.855 49.5505 131.344 49.5735 149.002H40.3476C39.9046 149.001 39.4658 149.089 39.0569 149.259C38.648 149.43 38.277 149.68 37.9655 149.995C37.6541 150.31 37.4084 150.684 37.2426 151.095C37.0769 151.506 36.9946 151.946 37.0003 152.389" stroke="white" stroke-width="2" stroke-linecap="round" stroke-linejoin="round"/>
<path d="M264.103 253.363L255.246 256.177L256.945 261.776L260.728 262.769L261.655 265.461L257.291 267.227L258.684 271.497L254.41 273.902L258.684 286.22L291.647 275.492L285.891 258.774L279.855 260.168L278.368 255.341L276.139 255.168L274.966 251.244L277.3 250.467L274.561 242.897L269.091 244.282L264.103 253.363Z" fill="#FFB26E"/>
<path d="M255.75 256L259.792 254.5L260.007 262.25L261.75 265.5L260.114 266.125L260.221 270L260.436 277.75L260.651 285.5L258.75 286.22L254.25 274L258.25 271.5L257.25 267.5L261.75 265.5L260.651 263L256.75 261.5L255.75 256Z" fill="white"/>
<path d="M262.18 253.747L264.238 284.379L266.17 283.801L264.362 252.064L262.18 253.747Z" fill="white"/>
<path d="M264.103 253.363L255.246 256.177L256.945 261.776L260.728 262.769L261.655 265.461L257.291 267.227L258.684 271.497L254.41 273.902L258.684 286.22L291.647 275.492L285.891 258.774L279.855 260.168L278.368 255.341L276.139 255.168L274.966 251.244L277.3 250.467L274.561 242.897L269.091 244.282L264.103 253.363Z" stroke="black" stroke-width="1.2" stroke-linecap="round" stroke-linejoin="round"/>
<path d="M310.138 130.346C310.138 130.346 325.18 140.482 327.271 143.563C329.363 146.644 333.817 161.265 324.764 177.147C316.032 192.451 308.325 198.176 300.826 199.432C293.327 200.688 272.65 190.607 272.65 190.607L310.138 130.346Z" fill="black" stroke="black" stroke-width="1.2" stroke-linecap="round" stroke-linejoin="round"/>
<path d="M219.324 159.562C219.324 159.562 212.511 169.192 217.362 172.932C224.606 178.504 238.812 165.162 238.812 165.162" fill="#FFB26E"/>
<path d="M219.324 159.562C219.324 159.562 212.511 169.192 217.362 172.932C224.606 178.504 238.812 165.162 238.812 165.162" stroke="black" stroke-width="1.2" stroke-linecap="round" stroke-linejoin="round"/>
<path d="M204.84 158.2C204.84 158.2 198.027 167.834 202.877 171.574C210.118 177.147 224.323 163.804 224.323 163.804" fill="#FFB26E"/>
<path d="M205.542 162.835C205.542 162.835 202.626 169.942 205.542 172.775C208.458 175.608 199.526 170.986 201.139 164.927C202.752 158.868 205.542 162.835 205.542 162.835Z" fill="white"/>
<path d="M204.84 158.2C204.84 158.2 198.027 167.834 202.877 171.574C210.118 177.147 224.323 163.804 224.323 163.804" stroke="black" stroke-width="1.2" stroke-linecap="round" stroke-linejoin="round"/>
<path d="M247.005 143.846C232.093 141.656 218.186 152.408 215.914 167.862C213.642 183.315 223.88 197.619 238.78 199.809C253.681 201.999 267.6 191.246 269.872 175.793C272.144 160.339 261.906 146.035 247.005 143.846ZM261.961 174.631C260.356 185.552 250.518 193.15 239.985 191.603C229.452 190.057 222.22 179.945 223.829 169.016C225.438 158.087 235.272 150.497 245.805 152.043C256.337 153.589 263.566 163.71 261.961 174.631V174.631Z" fill="white" stroke="black" stroke-width="1.2" stroke-linecap="round" stroke-linejoin="round"/>
<path d="M190.701 149.253C190.701 149.253 181.867 164.491 186.729 168.231C193.973 173.803 209.572 159.562 209.572 159.562" fill="#FFB26E"/>
<path d="M190.547 155.795C188.978 161.822 191.474 169.502 191.474 169.502C191.474 169.502 188.122 170.923 186.729 168.231C185.336 165.539 184.571 163.431 186.141 159.562C187.71 155.693 190.547 155.795 190.547 155.795Z" fill="white"/>
<path d="M190.701 149.253C190.701 149.253 181.867 164.491 186.729 168.231C193.973 173.803 209.572 159.562 209.572 159.562" stroke="black" stroke-width="1.2" stroke-linecap="round" stroke-linejoin="round"/>
<path d="M213.94 127.003C197.788 135.946 185.819 140.561 201.641 145.761C217.464 150.96 229.723 157.576 235.111 151.851C240.499 146.126 271.661 144.831 242.893 134.8C214.124 124.77 213.94 127.003 213.94 127.003Z" fill="#FFB26E"/>
<path d="M273.647 191.074C273.647 191.074 286.46 188.009 299.547 169.345C312.634 150.682 310.142 130.346 310.142 130.346C310.142 130.346 282.006 109.175 254.418 107.782C226.831 106.389 212.354 108.618 191.183 124.495C170.012 140.373 164.997 167.662 175.306 167.395C185.615 167.128 190.905 151.796 203.721 141.766C216.538 131.735 233.667 135.244 233.667 135.244" fill="#FFB26E"/>
<path d="M223.605 108.975C223.605 108.975 201.873 116.117 187.381 134.439C172.888 152.761 173.092 166.936 173.092 166.936C173.092 166.936 167.3 165.013 171.491 151.859C175.682 138.705 186.168 126.155 200.531 118.134C214.893 110.113 223.605 108.975 223.605 108.975Z" fill="white"/>
<path d="M273.647 191.074C273.647 191.074 286.46 188.009 299.547 169.345C312.634 150.682 310.142 130.346 310.142 130.346C310.142 130.346 282.006 109.175 254.418 107.782C226.831 106.389 212.354 108.618 191.183 124.495C170.012 140.373 164.997 167.662 175.306 167.395C185.615 167.128 190.905 151.796 203.721 141.766C216.538 131.735 233.667 135.244 233.667 135.244" stroke="black" stroke-width="1.2" stroke-linecap="round" stroke-linejoin="round"/>
<path d="M298.436 194.138C301.668 194.138 304.287 191.519 304.287 188.287C304.287 185.056 301.668 182.436 298.436 182.436C295.205 182.436 292.585 185.056 292.585 188.287C292.585 191.519 295.205 194.138 298.436 194.138Z" fill="#FFB26E" stroke="black" stroke-width="1.2" stroke-linecap="round" stroke-linejoin="round"/>
<path d="M188.958 144.261L88.4116 148.861C87.5818 148.899 86.7987 149.256 86.225 149.856C85.6514 150.457 85.3312 151.256 85.3311 152.086V152.086C85.3314 152.519 85.4184 152.947 85.587 153.345C85.7556 153.743 86.0024 154.103 86.3126 154.404C86.6229 154.705 86.9903 154.941 87.3933 155.098C87.7963 155.254 88.2266 155.329 88.6588 155.316L199.546 151.945L188.958 144.261Z" fill="#FFB26E" stroke="black" stroke-width="1.2" stroke-linecap="round" stroke-linejoin="round"/>
<path d="M89.22 155.296L91.0408 170.852H97.1705L98.0063 178.653H103.579L104.831 189.402L121.685 188.703V178.653H132.547L136.005 182.852L148.566 182.436L146.204 153.566L89.22 155.296Z" fill="#FFB26E"/>
<path d="M89.891 159.385L121.685 184.089V188.5L105.25 189.5L103.25 179L98.2499 178.5L96.7499 171H91.2499L90.7357 166.611L89.891 159.385Z" fill="white"/>
<path d="M94.2498 155L125.586 178.653H130.25L98.2498 155H94.2498Z" fill="white"/>
<path d="M89.22 155.296L91.0408 170.852H97.1705L98.0063 178.653H103.579L104.831 189.402L121.685 188.703V178.653H132.547L136.005 182.852L148.566 182.436L146.204 153.566L89.22 155.296Z" stroke="black" stroke-width="1.2" stroke-linecap="round" stroke-linejoin="round"/>
<path d="M229.57 196.646C228.187 197.466 226.574 197.81 224.978 197.626C223.381 197.442 221.888 196.74 220.728 195.627C219.568 194.515 218.805 193.052 218.555 191.465C218.305 189.877 218.582 188.251 219.343 186.835C219.387 186.753 219.43 186.679 219.477 186.6C220.241 185.296 221.388 184.258 222.763 183.63C224.138 183.002 225.673 182.813 227.16 183.089C228.646 183.366 230.01 184.094 231.068 185.174C232.125 186.255 232.823 187.635 233.066 189.127C235.185 190.404 237.537 191.246 239.985 191.603C240.588 191.696 241.196 191.756 241.806 191.784C241.242 188.77 239.957 185.938 238.06 183.53C236.163 181.121 233.711 179.208 230.913 177.954C228.116 176.7 225.056 176.142 221.996 176.328C218.936 176.514 215.967 177.438 213.342 179.022C210.717 180.606 208.515 182.802 206.923 185.423C205.332 188.043 204.399 191.01 204.205 194.07C204.01 197.129 204.559 200.19 205.806 202.991C207.052 205.792 208.958 208.25 211.362 210.153L199 254.297L208.36 251.895L211.299 243.183L211.032 240.507L213.865 238.71L214.85 234.817L217.805 231.976L220.27 223.343L219.12 219.874L223.111 218.068L224.033 214.231C228.079 214.042 231.96 212.565 235.107 210.014C238.253 207.463 240.502 203.972 241.523 200.052C240.603 200.02 239.686 199.935 238.776 199.797C235.538 199.329 232.416 198.26 229.57 196.646V196.646Z" fill="#FFB26E"/>
<path d="M216.122 177.649L207.32 205.746C207.32 205.746 201.681 204.961 203.537 195.641C205.393 186.321 207.488 185.332 209.855 181.726C210.57 180.658 211.493 179.746 212.571 179.046C213.648 178.345 214.856 177.87 216.122 177.649V177.649Z" fill="white"/>
<path d="M229.57 196.646C228.187 197.466 226.574 197.81 224.978 197.626C223.381 197.442 221.888 196.74 220.728 195.627C219.568 194.515 218.805 193.052 218.555 191.465C218.305 189.877 218.582 188.251 219.343 186.835C219.387 186.753 219.43 186.679 219.477 186.6C220.241 185.296 221.388 184.258 222.763 183.63C224.138 183.002 225.673 182.813 227.16 183.089C228.646 183.366 230.01 184.094 231.068 185.174C232.125 186.255 232.823 187.635 233.066 189.127C235.185 190.404 237.537 191.246 239.985 191.603C240.588 191.696 241.196 191.756 241.806 191.784C241.242 188.77 239.957 185.938 238.06 183.53C236.163 181.121 233.711 179.208 230.913 177.954C228.116 176.7 225.056 176.142 221.996 176.328C218.936 176.514 215.967 177.438 213.342 179.022C210.717 180.606 208.515 182.802 206.923 185.423C205.332 188.043 204.399 191.01 204.205 194.07C204.01 197.129 204.559 200.19 205.806 202.991C207.052 205.792 208.958 208.25 211.362 210.153L199 254.297L208.36 251.895L211.299 243.183L211.032 240.507L213.865 238.71L214.85 234.817L217.805 231.976L220.27 223.343L219.12 219.874L223.111 218.068L224.033 214.231C228.079 214.042 231.96 212.565 235.107 210.014C238.253 207.463 240.502 203.972 241.523 200.052C240.603 200.02 239.686 199.935 238.776 199.797C235.538 199.329 232.416 198.26 229.57 196.646V196.646Z" stroke="black" stroke-width="1.2" stroke-linecap="round" stroke-linejoin="round"/>
<path d="M242.893 247.763L244.533 244.836L243.56 240.935L244.812 237.034L242.893 228.271L240.236 225.764L242.893 222.283L241.888 218.461C244.701 216.774 247.029 214.387 248.645 211.533C250.261 208.679 251.111 205.455 251.11 202.175C251.11 201.04 251.009 199.906 250.808 198.789C246.931 200.056 242.812 200.406 238.776 199.809C238.758 199.813 238.74 199.813 238.721 199.809C238.143 200.987 237.26 201.988 236.164 202.71C235.069 203.431 233.8 203.846 232.489 203.912C231.179 203.978 229.875 203.692 228.712 203.084C227.55 202.476 226.571 201.568 225.877 200.454C225.184 199.341 224.801 198.061 224.769 196.75C224.736 195.438 225.055 194.142 225.692 192.995C226.33 191.848 227.262 190.893 228.393 190.228C229.524 189.563 230.813 189.213 232.125 189.214C232.535 189.212 232.945 189.246 233.349 189.316C234.594 189.524 235.765 190.05 236.747 190.842C237.799 191.203 238.881 191.466 239.981 191.627C242.518 192 245.104 191.847 247.578 191.176C245.771 188.642 243.367 186.591 240.58 185.204C237.793 183.818 234.708 183.138 231.596 183.225C228.484 183.312 225.442 184.163 222.737 185.703C220.031 187.243 217.746 189.424 216.082 192.055C214.419 194.686 213.428 197.686 213.197 200.791C212.966 203.895 213.502 207.008 214.758 209.857C216.013 212.705 217.95 215.201 220.398 217.124C222.846 219.047 225.729 220.339 228.793 220.886L238.819 265.622L245.922 259.073L244.388 250.023L242.893 247.763Z" fill="#FFB26E"/>
<path d="M218.614 188.849L220.403 216.145C220.403 216.145 215.784 214.658 213.932 207.602C212.08 200.547 215.623 192.8 215.623 192.8L218.614 188.849Z" fill="white"/>
<path d="M221.494 186.455L223.605 218.649L227.259 220.517L224.378 184.842L221.494 186.455Z" fill="white"/>
<path d="M242.893 247.763L244.533 244.836L243.56 240.935L244.812 237.034L242.893 228.271L240.236 225.764L242.893 222.283L241.888 218.461C244.701 216.774 247.029 214.387 248.645 211.533C250.261 208.679 251.111 205.455 251.11 202.175C251.11 201.04 251.009 199.906 250.808 198.789C246.931 200.056 242.812 200.406 238.776 199.809C238.758 199.813 238.74 199.813 238.721 199.809C238.143 200.987 237.26 201.988 236.164 202.71C235.069 203.431 233.8 203.846 232.489 203.912C231.179 203.978 229.875 203.692 228.712 203.084C227.55 202.476 226.571 201.568 225.877 200.454C225.184 199.341 224.801 198.061 224.769 196.75C224.736 195.438 225.055 194.142 225.692 192.995C226.33 191.848 227.262 190.893 228.393 190.228C229.524 189.563 230.813 189.213 232.125 189.214C232.535 189.212 232.945 189.246 233.349 189.316C234.594 189.524 235.765 190.05 236.747 190.842C237.799 191.203 238.881 191.466 239.981 191.627C242.518 192 245.104 191.847 247.578 191.176C245.771 188.642 243.367 186.591 240.58 185.204C237.793 183.818 234.708 183.138 231.596 183.225C228.484 183.312 225.442 184.163 222.737 185.703C220.031 187.243 217.746 189.424 216.082 192.055C214.419 194.686 213.428 197.686 213.197 200.791C212.966 203.895 213.502 207.008 214.758 209.857C216.013 212.705 217.95 215.201 220.398 217.124C222.846 219.047 225.729 220.339 228.793 220.886L238.819 265.622L245.922 259.073L244.388 250.023L242.893 247.763Z" stroke="black" stroke-width="1.2" stroke-linecap="round" stroke-linejoin="round"/>
<path d="M279.643 281.056L260.414 218.269C260.371 218.135 260.324 218.006 260.269 217.876C262.693 216.369 264.765 214.358 266.343 211.98C267.921 209.602 268.969 206.912 269.415 204.093C269.862 201.274 269.697 198.392 268.931 195.643C268.166 192.893 266.818 190.34 264.978 188.158C263.505 190.278 261.749 192.187 259.759 193.832C260.718 195.096 261.414 196.54 261.805 198.077C262.197 199.614 262.277 201.215 262.039 202.784C261.101 209.172 255.344 213.618 249.187 212.712C243.16 211.829 238.984 206.139 239.683 199.911C239.683 199.774 239.71 199.64 239.734 199.519C240.177 196.415 241.83 193.613 244.333 191.725C246.434 190.123 249.042 189.332 251.679 189.496C254.419 188.008 256.768 185.891 258.531 183.319C256.999 182.631 255.378 182.158 253.716 181.914C246.366 180.831 239.361 184.328 235.417 190.32C233.879 192.651 232.851 195.28 232.399 198.035C232.372 198.165 232.356 198.294 232.337 198.428C230.767 209.058 237.831 218.896 248.057 220.403C249.791 220.658 251.554 220.658 253.288 220.403V220.45L272.517 283.238C272.649 283.718 272.875 284.166 273.183 284.556C273.491 284.946 273.874 285.271 274.31 285.51C274.746 285.75 275.225 285.9 275.72 285.95C276.215 286.001 276.714 285.952 277.19 285.807C277.665 285.661 278.106 285.421 278.488 285.102C278.869 284.782 279.182 284.39 279.408 283.947C279.635 283.505 279.77 283.021 279.807 282.525C279.843 282.029 279.779 281.531 279.62 281.06L279.643 281.056Z" fill="#FFB26E"/>
<path d="M246.06 182.436C246.06 182.436 233.247 190.167 234.628 201.665C236.01 213.163 243.572 218.932 248.069 220.415C252.566 221.898 239.537 219.995 235.75 212.5C232.25 209 230.062 197.108 235.25 190.5C240.438 183.892 246.06 182.436 246.06 182.436Z" fill="white"/>
<path d="M253.3 220.411L276.174 285.855L272.63 284.301L253.3 220.411Z" fill="white"/>
<path d="M279.643 281.056L260.414 218.269C260.371 218.135 260.324 218.006 260.269 217.876C262.693 216.369 264.765 214.358 266.343 211.98C267.921 209.602 268.969 206.912 269.415 204.093C269.862 201.274 269.697 198.392 268.931 195.643C268.166 192.893 266.818 190.34 264.978 188.158C263.505 190.278 261.749 192.187 259.759 193.832C260.718 195.096 261.414 196.54 261.805 198.077C262.197 199.614 262.277 201.215 262.039 202.784C261.101 209.172 255.344 213.618 249.187 212.712C243.16 211.829 238.984 206.139 239.683 199.911C239.683 199.774 239.71 199.64 239.734 199.519C240.177 196.415 241.83 193.613 244.333 191.725C246.434 190.123 249.042 189.332 251.679 189.496C254.419 188.008 256.768 185.891 258.531 183.319C256.999 182.631 255.378 182.158 253.716 181.914C246.366 180.831 239.361 184.328 235.417 190.32C233.879 192.651 232.851 195.28 232.399 198.035C232.372 198.165 232.356 198.294 232.337 198.428C230.767 209.058 237.831 218.896 248.057 220.403C249.791 220.658 251.554 220.658 253.288 220.403V220.45L272.517 283.238C272.649 283.718 272.875 284.166 273.183 284.556C273.491 284.946 273.874 285.271 274.31 285.51C274.746 285.75 275.225 285.9 275.72 285.95C276.215 286.001 276.714 285.952 277.19 285.807C277.665 285.661 278.106 285.421 278.488 285.102C278.869 284.782 279.182 284.39 279.408 283.947C279.635 283.505 279.77 283.021 279.807 282.525C279.843 282.029 279.779 281.531 279.62 281.06L279.643 281.056Z" stroke="black" stroke-width="1.2" stroke-linecap="round" stroke-linejoin="round"/>
<path d="M251.083 139.537C251.083 139.537 238.525 139.258 231.854 140.651C225.183 142.044 210.212 134.4 194.248 136.193C178.284 137.987 178.382 144.383 185.34 149.002C192.298 153.621 273.635 191.074 273.635 191.074" fill="#FFB26E"/>
<path d="M200.25 136C200.25 136 183.252 137.849 188.385 145.584C193.518 153.319 230.798 171.154 230.798 171.154C230.798 171.154 217.606 164.836 205.25 159C192.077 152.778 179.718 146.886 180.75 142.5C183.25 137 187.25 137.5 192.25 136.5C196.672 136.037 200.25 136 200.25 136Z" fill="white"/>
<path d="M251.083 139.537C251.083 139.537 238.525 139.258 231.854 140.651C225.183 142.044 210.212 134.4 194.248 136.193C178.284 137.987 178.382 144.383 185.34 149.002C192.298 153.621 273.635 191.074 273.635 191.074" stroke="black" stroke-width="1.2" stroke-linecap="round" stroke-linejoin="round"/>
<path d="M233.314 220.827L241.123 257.04" stroke="black" stroke-width="1.2" stroke-linecap="round" stroke-linejoin="round"/>
<path d="M204.282 248.273L215.203 210.773" stroke="black" stroke-width="1.2" stroke-linecap="round" stroke-linejoin="round"/>
<path d="M260.893 195.641C260.893 195.641 263.856 193.542 266.262 194.138C268.667 194.735 268.95 195.641 268.95 195.641C268.533 194.035 267.888 192.497 267.035 191.074C265.783 189.17 264.99 188.177 264.99 188.177L259.771 193.852L260.893 195.641Z" fill="black"/>
<path d="M252.287 189.159C252.287 189.159 254.689 186.965 254.76 184.944C254.804 184.396 254.734 183.844 254.555 183.324C254.375 182.804 254.089 182.326 253.716 181.922L257.903 183.802L252.287 189.159Z" fill="black"/>
<path d="M239.695 202.285L250.89 204.53L251.114 202.175L250.812 198.789L239.695 199.927V202.285Z" fill="black"/>
<path d="M237.925 184.092C237.925 184.092 235.084 188.801 234.715 189.159C234.346 189.516 235.264 189.896 235.264 189.896L240.236 185.289L237.925 184.092Z" fill="black"/>
<path d="M232.129 131.563C232.129 131.563 234.621 137.728 235.931 140.051" stroke="black" stroke-width="1.2" stroke-linecap="round" stroke-linejoin="round"/>
</svg>
