<svg width="368" height="298" viewBox="0 0 368 298" fill="none" xmlns="http://www.w3.org/2000/svg">
<path d="M318.758 158.422C318.758 99.6286 282.015 49.487 230.312 29.7581L215.68 4.39238C214.831 2.91762 213.231 2 211.533 2H151.665C149.934 2 148.367 2.91762 147.517 4.39238L132.918 29.7581C81.216 49.487 44.4726 99.6286 44.4726 158.389C44.4726 165.861 45.0931 173.202 46.2363 180.379L31.6369 205.778C30.7877 207.253 30.7877 209.121 31.6369 210.595L61.5868 262.638C62.436 264.145 64.0364 265.03 65.7348 265.03H94.9662C118.58 284.366 148.759 296 181.615 296C214.472 296 244.651 284.399 268.264 265.03H297.496C299.227 265.03 300.794 264.113 301.644 262.638L331.594 210.595C332.443 209.121 332.443 207.253 331.594 205.778L316.994 180.412C318.137 173.268 318.758 165.927 318.758 158.422Z" fill="#B880FF" stroke="white" stroke-width="2" stroke-miterlimit="10" stroke-linecap="round" stroke-linejoin="round"/>
<path d="M251.494 226.822H40.7513C34.8075 226.822 30 221.998 30 216.034V79.0646C30 74.4454 33.7294 70.7324 38.3039 70.7324H253.913C258.516 70.7324 262.216 74.4746 262.216 79.0646V216.034C262.246 221.998 257.438 226.822 251.494 226.822Z" fill="#B880FF" stroke="white" stroke-width="1.2" stroke-miterlimit="10" stroke-linecap="round" stroke-linejoin="round"/>
<path d="M37.6629 70.7324H254.554C258.778 70.7324 262.216 74.1822 262.216 78.4214V86.6951H30V78.4214C30 74.1822 33.4381 70.7324 37.6629 70.7324Z" fill="white" stroke="white" stroke-width="1.2" stroke-miterlimit="10"/>
<path d="M38.3328 81.5495C39.5236 81.5495 40.4889 80.5809 40.4889 79.3861C40.4889 78.1913 39.5236 77.2227 38.3328 77.2227C37.1421 77.2227 36.1768 78.1913 36.1768 79.3861C36.1768 80.5809 37.1421 81.5495 38.3328 81.5495Z" fill="#B880FF"/>
<path d="M45.2674 81.5495C46.4582 81.5495 47.4235 80.5809 47.4235 79.3861C47.4235 78.1913 46.4582 77.2227 45.2674 77.2227C44.0766 77.2227 43.1113 78.1913 43.1113 79.3861C43.1113 80.5809 44.0766 81.5495 45.2674 81.5495Z" fill="#B880FF"/>
<path d="M231.341 100.32H201.331V213.287H231.341V100.32Z" fill="white" stroke="#B880FF" stroke-width="1.2" stroke-miterlimit="10"/>
<path d="M188.01 100.32H61V133.014H188.01V100.32Z" fill="white" stroke="#B880FF" stroke-width="1.2" stroke-miterlimit="10"/>
<path d="M188 145.99H158V213.219H188V145.99Z" fill="white" stroke="#B880FF" stroke-width="1.2" stroke-miterlimit="10"/>
<path d="M145 145.99H61V213.219H145V145.99Z" fill="white" stroke="#B880FF" stroke-width="1.2" stroke-miterlimit="10"/>
<path d="M201.331 100.32H231.341L216.336 156.804L231.341 213.287H201.331L216.336 156.804L201.331 100.32Z" fill="white"/>
<path d="M201.331 100.32H231.341L201.331 213.287H231.341L201.331 100.32Z" stroke="#B880FF" stroke-width="1.2" stroke-miterlimit="10" stroke-linejoin="round"/>
<path d="M188.01 133.014L124.505 116.667L188.01 100.32V133.014Z" fill="white"/>
<path d="M61 100.32L188.01 133.014V100.32L61 133.014" stroke="#B880FF" stroke-width="1.2" stroke-miterlimit="10" stroke-linejoin="round"/>
<path d="M188 145.99H158V213.219H188V145.99Z" fill="white" stroke="#B880FF" stroke-width="1.2" stroke-miterlimit="10" stroke-linejoin="round"/>
<path d="M188 213.219H158V145.99L173 179.605L188 213.219Z" fill="white"/>
<path d="M188 145.99L158 213.219M158 213.219H188L158 145.99V213.219Z" stroke="#B880FF" stroke-width="1.2" stroke-miterlimit="10" stroke-linejoin="round"/>
<path d="M145 145.99V213.219L103 179.605L61 213.219V145.99L103 179.605L145 145.99Z" fill="white"/>
<path d="M61 145.99V213.219L145 145.99V213.219L61 145.99Z" stroke="#B880FF" stroke-width="1.2" stroke-miterlimit="10" stroke-linejoin="round"/>
<path d="M226.029 198.493L233.226 190.688L267.869 196.476L264.402 212.965L256.331 232.699L226.029 198.493Z" fill="#B880FF"/>
<path d="M297.53 271.582L298.287 265.413C290.595 265.413 249.397 241.469 249.397 241.469L240.539 244.158C240.539 244.158 271.715 265.793 298.083 272.166" fill="white"/>
<path d="M52.5516 81.5495C53.7424 81.5495 54.7077 80.5809 54.7077 79.3861C54.7077 78.1913 53.7424 77.2227 52.5516 77.2227C51.3608 77.2227 50.3955 78.1913 50.3955 79.3861C50.3955 80.5809 51.3608 81.5495 52.5516 81.5495Z" fill="#B880FF"/>
<path d="M299.89 274.095C299.89 274.095 254.029 256.437 238.441 243.105" stroke="black" stroke-width="1.2" stroke-miterlimit="10"/>
<path d="M223.145 231.411C224.106 247.607 258.662 247.139 260.323 238.924C261.109 235.007 258.341 232.96 249.222 230.387C235.411 226.47 222.358 217.962 223.145 231.411Z" fill="#B880FF" stroke="black" stroke-width="1.2" stroke-miterlimit="10" stroke-linecap="round" stroke-linejoin="round"/>
<path d="M223.145 231.12C224.106 247.316 258.662 246.848 260.323 238.633C261.109 234.716 258.341 232.669 249.222 230.096C235.411 226.179 222.358 217.671 223.145 231.12Z" fill="white" stroke="white" stroke-width="1.2" stroke-miterlimit="10"/>
<path d="M223.145 227.143C224.106 243.34 258.662 242.872 260.323 234.657C261.109 230.739 258.341 228.693 249.222 226.12C235.411 222.232 222.358 213.724 223.145 227.143Z" fill="#B880FF"/>
<path d="M270.928 191.652C271.657 190.833 272.094 190.336 272.094 190.336Z" fill="#B880FF"/>
<path d="M270.928 191.652C271.657 190.833 272.094 190.336 272.094 190.336" stroke="black" stroke-width="1.2" stroke-miterlimit="10" stroke-linecap="round" stroke-linejoin="round"/>
<path d="M287.39 239.248C287.39 239.248 269.734 227.437 272.881 203.844Z" fill="#B880FF"/>
<path d="M287.39 239.248C287.39 239.248 269.734 227.437 272.881 203.844" stroke="black" stroke-width="1.2" stroke-miterlimit="10" stroke-linecap="round" stroke-linejoin="round"/>
<path d="M269.879 188.962C259.449 183.992 215.744 163.469 209.625 164.346C202.691 165.34 206.071 176.303 229.555 192.675C251.116 207.702 254.962 208.462 255.399 208.55" fill="#B880FF"/>
<path d="M269.879 188.962C259.449 183.992 215.744 163.469 209.625 164.346C202.691 165.34 206.071 176.303 229.555 192.675C251.116 207.702 254.962 208.462 255.399 208.55" stroke="black" stroke-width="1.2" stroke-miterlimit="10" stroke-linecap="round" stroke-linejoin="round"/>
<path fill-rule="evenodd" clip-rule="evenodd" d="M211.927 130.059C196.113 130.059 183.293 142.923 183.293 158.791C183.293 174.659 196.113 187.523 211.927 187.523C227.742 187.523 240.562 174.659 240.562 158.791C240.562 142.923 227.742 130.059 211.927 130.059ZM178.035 158.791C178.035 140.009 193.209 124.783 211.927 124.783C230.645 124.783 245.819 140.009 245.819 158.791C245.819 177.573 230.645 192.799 211.927 192.799C193.209 192.799 178.035 177.573 178.035 158.791Z" fill="black"/>
<path d="M269.588 228.664L269.53 228.722C268.218 229.833 266.295 229.658 265.188 228.371L229.176 185.775L233.954 181.711L269.937 224.307C271.045 225.594 270.899 227.553 269.588 228.664Z" fill="black"/>
<path fill-rule="evenodd" clip-rule="evenodd" d="M234.168 179.109L271.336 223.109C273.088 225.151 272.871 228.237 270.84 230.019L270.776 230.084L270.717 230.134C268.622 231.908 265.551 231.618 263.796 229.579L263.79 229.573L226.582 185.561L234.168 179.109ZM231.77 185.99L266.585 227.17C267.031 227.684 267.771 227.754 268.295 227.35L268.342 227.304L268.401 227.254C268.929 226.806 268.983 226.024 268.545 225.515L268.539 225.509L233.74 184.314L231.77 185.99Z" fill="black"/>
<path d="M313.001 220.214C313.001 220.214 303.182 213.46 298.375 208.051C293.305 202.38 282.291 189.867 273.929 187.002C268.073 184.984 259.07 184.517 255.836 184.692C252.602 184.838 237.567 187.645 236.984 191.446C236.343 195.509 246.133 200.684 255.311 201.064C265.859 201.503 272.269 206.648 274.512 209.572" fill="#B880FF"/>
<path d="M313.001 220.214C313.001 220.214 303.182 213.46 298.375 208.051C293.305 202.38 282.291 189.867 273.929 187.002C268.073 184.984 259.07 184.517 255.836 184.692C252.602 184.838 237.567 187.645 236.984 191.446C236.343 195.509 246.133 200.684 255.311 201.064C265.859 201.503 272.269 206.648 274.512 209.572" stroke="black" stroke-width="1.2" stroke-miterlimit="10" stroke-linecap="round" stroke-linejoin="round"/>
<path d="M223.145 231.413C224.106 247.609 258.662 247.141 260.323 238.926C261.109 235.009 258.341 232.962 249.222 230.389C235.411 226.472 222.358 217.964 223.145 231.413Z" stroke="black" stroke-width="1.2" stroke-miterlimit="10" stroke-linecap="round" stroke-linejoin="round"/>
<path d="M223.145 231.413C224.106 247.609 258.662 247.141 260.323 238.926C261.109 235.009 258.341 232.962 249.222 230.389C235.411 226.472 222.358 217.964 223.145 231.413Z" stroke="black" stroke-width="1.2" stroke-miterlimit="10" stroke-linecap="round" stroke-linejoin="round"/>
<path d="M223.728 226.617C223.232 227.757 222.999 229.307 223.145 231.412C224.106 247.608 258.662 247.141 260.323 238.925C260.818 236.499 259.915 234.774 257.001 233.224" stroke="black" stroke-width="1.2" stroke-miterlimit="10" stroke-linecap="round" stroke-linejoin="round"/>
<path d="M256.943 232.084C255.223 235.767 214.811 232.142 217.026 214.425C219.24 196.474 229.962 208.812 229.962 208.812C229.962 208.812 263.294 223.518 256.943 232.084Z" fill="white"/>
<path d="M260.585 228.401C258.866 232.084 215.484 227.725 217.698 210.008C218.117 206.615 219.77 206.546 220.853 205.129C225.496 199.051 233.605 205.129 233.605 205.129C233.605 205.129 266.936 219.864 260.585 228.401Z" fill="#B880FF"/>
<path d="M256.943 232.084C255.223 235.767 214.811 232.142 217.026 214.425C219.24 196.474 229.962 208.812 229.962 208.812C229.962 208.812 263.294 223.518 256.943 232.084Z" stroke="black" stroke-width="1.2" stroke-miterlimit="10" stroke-linecap="round" stroke-linejoin="round"/>
<path d="M241.883 200.513C250.099 206.681 263.411 219.221 258.108 223.168C255.34 226.238 216.472 217.584 220.522 200.189C222.445 191.974 227.69 191.798 230.72 193.055" fill="#B880FF"/>
<path d="M241.733 201.417C249.95 207.586 263.119 219.221 257.846 223.168C255.078 226.238 216.21 217.584 220.26 200.189C222.183 191.974 227.427 191.798 230.458 193.055" fill="white"/>
<path d="M241.883 200.511C250.099 206.68 256.604 214.755 258.708 218.448C258.46 218.723 260.003 220.407 259.233 220.496C251.404 221.401 219.515 212.809 223.203 196.972C223.428 196.009 223.699 195.156 224.007 194.403C226.11 193.125 230.165 192.016 232.84 193.125" fill="#B880FF"/>
<path d="M243.807 200.511C252.024 206.679 263.119 219.221 257.846 223.168C255.078 226.238 216.21 217.584 220.26 200.189C222.183 191.974 230.603 191.798 233.633 193.055" stroke="black" stroke-width="1.2" stroke-miterlimit="10" stroke-linecap="round" stroke-linejoin="round"/>
<path d="M318.566 281.757L293.159 271.466L312.797 219.836L338 228.899L318.566 281.757Z" fill="black" stroke="black" stroke-width="1.2" stroke-miterlimit="10" stroke-linecap="round" stroke-linejoin="round"/>
<path d="M327.861 236.647C329.647 236.647 331.095 235.194 331.095 233.401C331.095 231.609 329.647 230.156 327.861 230.156C326.074 230.156 324.626 231.609 324.626 233.401C324.626 235.194 326.074 236.647 327.861 236.647Z" fill="#B880FF"/>
</svg>
