<svg width="368" height="298" viewBox="0 0 368 298" fill="none" xmlns="http://www.w3.org/2000/svg">
<path d="M128.468 2C126.79 2 125.111 2.69933 123.922 3.8882L71.5423 56.2683C16.7146 111.096 16.7146 200.051 71.5423 254.879C126.37 309.707 215.325 309.707 270.153 254.879L322.533 202.499C323.722 201.31 324.422 199.632 324.422 197.953V5.63654C324.422 3.60847 322.813 2 320.785 2H128.468Z" fill="#FFE84D" stroke="white" stroke-width="2"/>
<path d="M303.819 252.733C300.449 258.177 298.569 260.77 295.458 264.399C289.107 271.399 279.126 276.324 270.7 276.324C237.258 276.324 242.52 264.284 236.168 261.044C244.205 261.951 253.007 265.436 253.007 265.436C259.099 269.066 266.358 270.686 273.422 269.973C282.042 269.066 290.208 264.658 295.588 258.048C297.338 255.909 298.893 253.77 300.773 250.918C302.004 251.437 303.041 252.085 303.819 252.733Z" fill="black"/>
<path d="M132.522 228.365C130.319 229.466 127.921 230.115 125.458 230.05C106.922 229.791 91.3023 211.967 91.3023 211.967C83.5897 203.866 77.8215 193.885 74.6458 183.126C75.5531 183.256 76.5253 183.45 77.4326 183.515C80.6732 193.755 86.247 203.218 93.7003 210.93C93.7003 210.93 109.32 228.689 127.856 229.013C129.411 229.078 130.967 228.818 132.522 228.365Z" fill="white"/>
<path d="M139.781 222.143C139.263 222.791 138.744 223.374 138.226 223.957C137.318 224.476 136.346 224.865 135.374 225.189C136.994 224.411 138.42 223.374 139.781 222.143Z" fill="white"/>
<path d="M142.179 221.17C139.587 224.54 136.217 227.133 132.522 228.364C134.596 227.327 136.541 225.836 138.226 224.022C139.652 223.244 140.948 222.272 142.179 221.17Z" fill="white"/>
<path d="M70.1736 182.154C66.4146 180.922 63.6277 178.654 62.4611 175.543C61.6185 173.404 61.6185 171.006 62.3962 168.608C62.7851 168.803 63.2388 168.932 63.6277 169.062C64.211 169.451 64.8591 169.775 65.572 170.034C64.8591 172.432 64.8591 174.765 65.6368 176.969C66.4794 179.108 68.0348 180.858 70.1736 182.154Z" fill="white"/>
<path d="M75.0344 133.61L74.9696 133.416L62.0721 96.0194" stroke="black" stroke-width="1.2" stroke-miterlimit="10" stroke-linecap="round" stroke-linejoin="round"/>
<path d="M61.8777 125.444L52.3505 97.7693" stroke="black" stroke-width="1.2" stroke-miterlimit="10" stroke-linecap="round" stroke-linejoin="round"/>
<path d="M66.3498 138.406L66.0906 137.758C66.2202 137.758 66.4146 137.758 66.5443 137.693C66.9331 137.628 67.322 137.564 67.7109 137.499C68.0997 137.434 68.4886 137.304 68.8775 137.24L81.7749 133.416C82.5527 133.221 83.2656 132.897 83.9785 132.573C84.2378 132.444 84.4322 132.314 84.6266 132.184L85.9229 135.943L87.2191 139.767L89.6819 146.961C88.1913 148.452 85.9229 149.943 83.2656 151.109C82.6175 151.368 81.9046 151.563 81.2564 151.822C80.9972 151.952 80.6731 152.017 80.4139 152.146C80.4139 152.146 80.4139 152.146 80.3491 152.146C76.7845 153.248 73.4791 153.507 71.2755 152.859L69.396 147.48L67.7109 142.619L66.3498 138.406Z" fill="black"/>
<path d="M86.8468 140.988C79.7175 141.96 72.329 140.859 65.7183 137.942C71.8753 136.905 78.1621 135.285 83.8655 132.887C84.7728 135.544 85.8746 138.331 86.8468 140.988Z" fill="#FFE84D"/>
<path d="M84.6267 132.119L80.8676 121.231L70.5626 91.3529" stroke="black" stroke-width="1.2" stroke-miterlimit="10" stroke-linecap="round" stroke-linejoin="round"/>
<path d="M107.505 177.228C98.561 183.385 85.4043 185.07 74.5808 183.191V183.126C79.8305 183.774 86.1172 182.996 92.404 180.534C97.4592 178.589 101.802 175.867 105.107 172.756C105.755 174.312 106.533 175.802 107.505 177.228Z" fill="black"/>
<path d="M111.264 156.813L111.134 156.942C104.977 163.359 97.0703 167.96 88.5152 170.164C79.9601 172.368 70.7569 172.173 62.2666 169.581V168.997C62.2666 168.868 62.3314 168.738 62.3962 168.608C68.4237 171.136 77.6917 170.877 87.0246 167.247C96.5518 163.553 103.681 157.396 106.338 151.304C108.672 152.6 110.357 154.415 111.264 156.683C111.199 156.748 111.264 156.813 111.264 156.813Z" fill="black"/>
<path d="M81.7749 133.351L68.8774 137.175C68.4885 137.304 68.0996 137.369 67.7108 137.434C67.3219 137.499 66.933 137.563 66.5442 137.628C66.4145 137.628 66.2201 137.628 66.0905 137.693C65.2479 137.758 64.3406 137.758 63.498 137.628C63.498 137.628 63.498 137.628 63.4332 137.628C63.2388 137.628 63.1092 137.563 62.9147 137.563C62.6555 137.499 62.3962 137.499 62.137 137.434C61.8777 137.369 61.6185 137.304 61.3593 137.239C61.2944 137.239 61.1648 137.175 61.1 137.175C60.7111 137.11 60.3871 136.98 59.9982 136.85C59.9334 136.85 59.8686 136.786 59.8038 136.786C59.6094 136.721 59.4149 136.656 59.2205 136.591C59.1557 136.591 59.0909 136.526 59.026 136.526C58.8316 136.462 58.6372 136.332 58.3779 136.267C58.0539 136.138 57.665 135.943 57.341 135.813C56.8225 135.554 56.304 135.295 55.7855 134.971C55.4614 134.776 55.0726 134.517 54.7485 134.323C54.4244 134.064 54.1004 133.869 53.7115 133.61C53.3875 133.351 53.0634 133.091 52.6745 132.832C52.3505 132.573 52.0264 132.314 51.7024 131.99C50.7302 131.147 49.758 130.175 48.7858 129.203C48.3322 128.684 47.8137 128.166 47.36 127.647C46.4526 126.545 45.5453 125.379 44.6379 124.147C44.3139 123.759 44.0546 123.305 43.7954 122.916C40.49 117.99 37.7031 112.028 35.6939 105.417C30.3794 87.6586 32.7774 70.6132 40.814 63.6136C41.0733 63.3543 41.3973 63.1599 41.6566 62.9006C41.9806 62.6414 42.2399 62.4469 42.5639 62.2525C42.7584 62.1229 42.9528 61.9933 43.2121 61.8636C43.6657 61.6044 44.0546 61.41 44.5083 61.2155C44.7027 61.0859 44.962 61.0211 45.1564 60.9563C45.4156 60.8915 45.6101 60.8267 45.8693 60.697L46.0638 60.6322L58.702 56.8732C56.4336 57.5213 54.4892 58.8175 52.8042 60.5026C45.4805 67.9559 43.4065 84.418 48.5266 101.528C51.4431 111.38 56.2392 119.675 61.6833 125.444C65.7664 129.721 70.2384 132.573 74.5808 133.545C74.6456 133.545 74.7104 133.61 74.84 133.61C76.4603 133.934 78.0806 133.999 79.6361 133.804C80.4786 133.675 81.1267 133.545 81.7749 133.351Z" fill="black" stroke="black" stroke-width="1.2" stroke-miterlimit="10" stroke-linecap="round" stroke-linejoin="round"/>
<path d="M48.9803 129.268C49.9525 130.305 50.9247 131.212 51.8969 132.055C50.8599 131.212 49.8877 130.24 48.9803 129.268Z" stroke="black" stroke-width="1.2" stroke-miterlimit="10" stroke-linecap="round" stroke-linejoin="round"/>
<path d="M66.0907 137.693C66.2203 137.693 66.4147 137.693 66.5444 137.629C66.4147 137.693 66.2851 137.693 66.0907 137.693ZM66.0907 137.693C65.2481 137.758 64.3408 137.758 63.4982 137.629C64.4056 137.758 65.2481 137.758 66.0907 137.693Z" stroke="black" stroke-width="1.2" stroke-miterlimit="10" stroke-linecap="round" stroke-linejoin="round"/>
<path d="M81.7747 133.351C81.1266 133.545 80.4785 133.675 79.8304 133.739C78.2749 133.934 76.6546 133.869 75.0343 133.545C74.9695 133.545 74.9047 133.545 74.7751 133.48C70.3679 132.508 65.8959 129.656 61.8776 125.379C56.4335 119.611 51.6374 111.315 48.7209 101.463C43.6008 84.2884 45.6748 67.8911 52.9985 60.4378C54.6836 58.6879 56.6927 57.4564 58.8963 56.8083L61.4887 64.5857L80.6081 122.333C80.6081 122.333 81.7747 133.351 81.7747 133.351Z" stroke="black" stroke-width="1.2" stroke-miterlimit="10" stroke-linecap="round" stroke-linejoin="round"/>
<path d="M84.6264 132.12C84.432 132.249 84.1727 132.379 83.9783 132.509C83.2654 132.833 82.5525 133.157 81.7747 133.351C81.1266 133.546 80.4785 133.675 79.8304 133.74C78.2749 133.935 76.6546 133.87 75.0343 133.546C74.9695 133.546 74.9047 133.546 74.7751 133.481C70.3679 132.509 65.8959 129.657 61.8776 125.379C56.4335 119.611 51.6374 111.315 48.7209 101.464C43.6008 84.289 45.6748 67.8918 52.9985 60.4384C54.6836 58.6885 56.6927 57.4571 58.8963 56.809C70.8216 53.2444 85.5986 67.5029 91.9501 88.6314C97.7183 108.01 94.413 126.416 84.6264 132.12Z" fill="white" stroke="black" stroke-width="1.2" stroke-miterlimit="10" stroke-linecap="round" stroke-linejoin="round"/>
<path d="M45.3511 60.9567C45.6103 60.8919 45.8048 60.7623 46.064 60.6975C46.1288 60.6975 46.1936 60.6327 46.2584 60.6327" stroke="black" stroke-width="1.2" stroke-miterlimit="10" stroke-linecap="round" stroke-linejoin="round"/>
<path d="M59.2854 164.136C60.0632 166.21 61.5538 167.83 63.6278 169.062C63.1741 168.932 62.7852 168.738 62.3964 168.608C59.3502 167.312 57.1466 165.303 56.1097 162.646C53.7116 156.359 58.7021 148.322 67.8405 142.554L68.8775 145.535C61.1001 151.109 57.0818 158.368 59.2854 164.136Z" fill="white"/>
<path d="M75.0344 133.61L74.9696 133.416L62.0721 96.0194" stroke="black" stroke-width="1.2" stroke-miterlimit="10" stroke-linecap="round" stroke-linejoin="round"/>
<path d="M66.3498 138.406L66.0906 137.758C66.2202 137.758 66.4146 137.758 66.5443 137.693C66.9331 137.628 67.322 137.564 67.7109 137.499C68.0997 137.434 68.4886 137.304 68.8775 137.24L81.7749 133.416C82.5527 133.221 83.2656 132.897 83.9785 132.573C84.2378 132.444 84.4322 132.314 84.6266 132.184L85.9229 135.943L87.2191 139.767L89.6819 146.961C88.1913 148.452 85.9229 149.943 83.2656 151.109C82.6175 151.368 81.9046 151.563 81.2564 151.822C80.9972 151.952 80.6731 152.017 80.4139 152.146C80.4139 152.146 80.4139 152.146 80.3491 152.146C76.7845 153.248 73.4791 153.507 71.2755 152.859L69.396 147.48L67.7109 142.619L66.3498 138.406Z" stroke="black" stroke-width="1.2" stroke-miterlimit="10" stroke-linecap="round" stroke-linejoin="round"/>
<path d="M84.6267 132.119L80.8676 121.231L70.5626 91.3529" stroke="black" stroke-width="1.2" stroke-miterlimit="10" stroke-linecap="round" stroke-linejoin="round"/>
<path d="M125.393 230.05C106.857 229.791 91.2373 211.967 91.2373 211.967C83.46 203.866 77.6918 193.885 74.516 183.062C79.7657 183.71 86.0524 182.932 92.3391 180.469C97.3944 178.525 101.737 175.803 105.042 172.692C105.69 174.247 106.533 175.738 107.44 177.099C112.042 183.839 119.884 188.441 128.05 188.895C157.928 193.302 143.929 230.374 125.393 230.05Z" stroke="black" stroke-width="1.2" stroke-miterlimit="10" stroke-linecap="round" stroke-linejoin="round"/>
<path d="M105.107 172.756C101.802 175.803 97.4592 178.525 92.4039 180.534C86.1172 182.997 79.8305 183.774 74.5808 183.126C68.6181 182.413 64.0813 179.756 62.4611 175.543C61.6185 173.405 61.6185 171.007 62.3962 168.608C68.4237 171.136 77.6917 170.877 87.0246 167.247C96.5519 163.553 103.681 157.396 106.338 151.304C108.672 152.6 110.357 154.415 111.264 156.683C113.144 161.674 110.551 167.701 105.107 172.756Z" stroke="black" stroke-width="1.2" stroke-miterlimit="10" stroke-linecap="round" stroke-linejoin="round"/>
<path d="M106.274 151.368C103.616 157.461 96.4872 163.618 86.9599 167.312C77.627 170.941 68.359 171.201 62.3316 168.673C59.2854 167.377 57.0818 165.368 56.0448 162.71C53.6468 156.424 58.6373 148.387 67.7757 142.619L69.4608 147.48L71.3403 152.859C73.5439 153.507 76.8493 153.248 80.4139 152.146C80.4139 152.146 80.4139 152.146 80.4787 152.146C81.0621 151.952 81.6454 151.757 82.2287 151.563C82.6175 151.433 83.0064 151.239 83.3953 151.109C86.0525 149.943 88.2561 148.452 89.8116 146.961L87.2191 139.702L85.9229 135.878C95.9687 134.453 104.459 137.11 106.792 143.137C107.764 145.665 107.57 148.517 106.274 151.368Z" stroke="black" stroke-width="1.2" stroke-miterlimit="10" stroke-linecap="round" stroke-linejoin="round"/>
<path d="M83.3303 150.979C82.9414 151.174 82.5525 151.303 82.1637 151.433C81.5804 151.627 80.9971 151.887 80.4138 152.016C80.673 151.887 80.9971 151.757 81.2563 151.692C81.9692 151.498 82.6173 151.239 83.3303 150.979Z" stroke="black" stroke-width="1.2" stroke-miterlimit="10" stroke-linecap="round" stroke-linejoin="round"/>
<path d="M91.5955 142.182C92.1139 143.608 91.3362 145.358 89.5863 147.107" stroke="black" stroke-width="1.2" stroke-miterlimit="10" stroke-linecap="round" stroke-linejoin="round"/>
<path d="M71.2755 152.795C69.9793 152.406 69.0071 151.758 68.683 150.85" stroke="black" stroke-width="1.2" stroke-miterlimit="10" stroke-linecap="round" stroke-linejoin="round"/>
<path d="M81.7749 133.351L68.8774 137.175C68.4885 137.304 68.0996 137.369 67.7108 137.434C67.3219 137.499 66.933 137.563 66.5442 137.628C66.4145 137.628 66.2201 137.628 66.0905 137.693C65.2479 137.758 64.3406 137.758 63.498 137.628C63.498 137.628 63.498 137.628 63.4332 137.628C63.2388 137.628 63.1092 137.563 62.9147 137.563C62.6555 137.499 62.3962 137.499 62.137 137.434C61.8777 137.369 61.6185 137.304 61.3593 137.239C61.2944 137.239 61.1648 137.175 61.1 137.175C60.7111 137.11 60.3871 136.98 59.9982 136.85C59.9334 136.85 59.8686 136.786 59.8038 136.786C59.6094 136.721 59.4149 136.656 59.2205 136.591C59.1557 136.591 59.0909 136.526 59.026 136.526C58.8316 136.462 58.6372 136.332 58.3779 136.267C58.0539 136.138 57.665 135.943 57.341 135.813C56.8225 135.554 56.304 135.295 55.7855 134.971C55.4614 134.776 55.0726 134.517 54.7485 134.323C54.4244 134.064 54.1004 133.869 53.7115 133.61C53.3875 133.351 53.0634 133.091 52.6745 132.832C52.3505 132.573 52.0264 132.314 51.7024 131.99C50.7302 131.147 49.758 130.175 48.7858 129.203C48.3322 128.684 47.8137 128.166 47.36 127.647C46.4526 126.545 45.5453 125.379 44.6379 124.147C44.3139 123.759 44.0546 123.305 43.7954 122.916C40.49 117.99 37.7031 112.028 35.6939 105.417C30.3794 87.6586 32.7774 70.6132 40.814 63.6136C41.0733 63.3543 41.3973 63.1599 41.6566 62.9006C41.9806 62.6414 42.2399 62.4469 42.5639 62.2525C42.7584 62.1229 42.9528 61.9933 43.2121 61.8636C43.6657 61.6044 44.0546 61.41 44.5083 61.2155C44.7027 61.0859 44.962 61.0211 45.1564 60.9563C45.4156 60.8915 45.6101 60.8267 45.8693 60.697L46.0638 60.6322L58.702 56.8732C56.4336 57.5213 54.4892 58.8175 52.8042 60.5026C45.4805 67.9559 43.4065 84.418 48.5266 101.528C51.4431 111.38 56.2392 119.675 61.6833 125.444C65.7664 129.721 70.2384 132.573 74.5808 133.545C74.6456 133.545 74.7104 133.61 74.84 133.61C76.4603 133.934 78.0806 133.999 79.6361 133.804C80.4786 133.675 81.1267 133.545 81.7749 133.351Z" stroke="black" stroke-width="1.2" stroke-miterlimit="10" stroke-linecap="round" stroke-linejoin="round"/>
<path d="M81.7747 133.351C81.1266 133.545 80.4785 133.675 79.8304 133.739C78.2749 133.934 76.6546 133.869 75.0343 133.545C74.9695 133.545 74.9047 133.545 74.7751 133.48C70.3679 132.508 65.8959 129.656 61.8776 125.379C56.4335 119.611 51.6374 111.315 48.7209 101.463C43.6008 84.2884 45.6748 67.8911 52.9985 60.4378C54.6836 58.6879 56.6927 57.4564 58.8963 56.8083L61.4887 64.5857L80.6081 122.333C80.6081 122.333 81.7747 133.351 81.7747 133.351Z" stroke="black" stroke-width="1.2" stroke-miterlimit="10" stroke-linecap="round" stroke-linejoin="round"/>
<path d="M84.6264 132.12C84.432 132.249 84.1727 132.379 83.9783 132.509C83.2654 132.833 82.5525 133.157 81.7747 133.351C81.1266 133.546 80.4785 133.675 79.8304 133.74C78.2749 133.935 76.6546 133.87 75.0343 133.546C74.9695 133.546 74.9047 133.546 74.7751 133.481C70.3679 132.509 65.8959 129.657 61.8776 125.379C56.4335 119.611 51.6374 111.315 48.7209 101.464C43.6008 84.289 45.6748 67.8918 52.9985 60.4384C54.6836 58.6885 56.6927 57.4571 58.8963 56.809C70.8216 53.2444 85.5986 67.5029 91.9501 88.6314C97.7183 108.01 94.413 126.416 84.6264 132.12Z" fill="white" stroke="black" stroke-width="1.2" stroke-miterlimit="10" stroke-linecap="round" stroke-linejoin="round"/>
<path d="M81.8397 107.945C82.099 112.741 81.7749 117.213 80.8675 121.231C80.8027 121.62 80.6731 122.009 80.6083 122.398C80.025 124.667 79.2473 126.74 78.3399 128.62" stroke="#FFE84D" stroke-width="1.2" stroke-miterlimit="10" stroke-linecap="round" stroke-linejoin="round"/>
<path d="M56.4986 61.6694C58.1837 62.3824 59.8688 63.4193 61.4891 64.6508C68.748 70.0949 75.3587 80.1407 79.053 92.5197C80.09 96.0843 80.8677 99.6489 81.3214 103.084" stroke="#FFE84D" stroke-width="1.2" stroke-miterlimit="10" stroke-linecap="round" stroke-linejoin="round"/>
<path d="M66.2852 138.017C72.8311 138.536 79.5067 136.527 84.6268 132.444Z" fill="black"/>
<path d="M66.2852 138.017C72.8311 138.536 79.5067 136.527 84.6268 132.444" stroke="black" stroke-width="1.2" stroke-miterlimit="10" stroke-linecap="round" stroke-linejoin="round"/>
<path d="M179.77 241.78C177.825 241.975 167.65 244.113 166.289 244.826C165.446 245.28 164.669 245.798 164.021 246.447C163.437 239.188 160.715 232.058 157.021 226.42C157.215 226.549 169.4 224.475 179.77 241.78Z" fill="black"/>
<path d="M329.419 260.317C327.021 270.816 317.559 282.612 310.3 278.853C304.078 275.612 307.643 268.937 308.096 264.594C308.55 259.863 307.513 256.752 304.985 253.771C304.726 253.447 304.337 253.058 303.819 252.669C303.041 252.021 302.004 251.373 300.773 250.854C298.893 253.706 297.338 255.845 295.588 257.984C290.208 264.659 282.042 269.066 273.422 269.909C266.358 270.622 259.034 269.002 253.007 265.372C253.007 265.372 235.767 255.002 227.73 254.095C215.934 248.003 205.694 245.475 195.454 244.438C187.547 243.66 179.64 243.725 171.15 243.725C167.196 244.179 164.28 246.253 161.493 249.234C157.021 254.03 152.873 261.289 145.679 267.9C136.152 278.01 75.5529 301.602 50.4061 225.319C49.6932 221.495 49.1747 217.736 48.9154 214.041C48.721 212.551 48.5266 211.19 48.2673 210.023C47.2304 204.968 45.4804 202.051 43.6009 200.366C41.9158 199.977 30.8331 199.848 30.8331 214.236C30.8331 217.801 31.9997 221.43 34.1384 224.282V224.346C33.1015 224.606 31.9997 224.411 31.0923 223.763C29.9257 222.985 29.148 221.689 28.4999 220.458C25.1297 213.782 24.676 205.746 27.3332 198.746C29.9905 191.746 35.6939 185.589 42.888 183.645C48.5266 182.154 54.8781 183.515 59.3501 187.21C62.3962 189.672 64.535 192.978 66.2849 196.478C67.1923 198.227 67.9052 199.977 68.6181 201.792C74.3863 216.245 85.858 218.449 97.0703 218.449C114.181 218.449 121.893 208.338 125.393 198.681C129.087 188.441 128.439 177.164 124.097 167.183C118.393 153.961 109.06 140.286 109.06 112.936C109.06 81.7614 128.309 53.0499 156.697 36.7822C154.104 32.3102 153.262 26.7365 153.91 21.6164C157.993 25.9587 163.372 29.1345 169.141 30.69C169.205 30.6252 169.335 30.6252 169.4 30.5603C167.65 28.1623 166.872 24.7273 167.326 21.8108C168.104 22.6533 169.27 23.3663 170.566 24.0144C175.103 26.2828 180.288 26.7365 185.214 25.5699C190.14 24.4033 195.195 23.6255 200.38 23.1718C227.017 21.0331 251.257 29.2641 268.237 44.3004C283.468 57.7163 292.866 76.5116 292.866 98.029C292.866 106.779 291.764 115.528 288.458 123.5C280.422 142.684 268.626 160.702 260.978 180.664C260.978 180.664 252.229 197.709 255.21 214.43C256.312 220.782 259.164 227.004 264.737 232.318C267.395 234.846 270.959 236.337 274.654 236.207H274.718C278.802 236.077 282.755 234.522 286.449 232.772C288.199 231.994 289.884 231.152 291.634 230.374C291.634 230.374 300.513 225.967 310.105 227.976C312.763 228.559 315.355 229.596 317.688 231.022C320.022 232.448 322.031 234.263 323.781 236.337C329.29 243.077 331.364 251.956 329.419 260.317Z" fill="#FFE84D"/>
<path d="M64.8591 193.82C64.0165 192.848 63.1092 191.876 62.0722 191.098C57.5354 187.404 51.2487 186.043 45.6101 187.533C38.416 189.413 32.7126 195.635 30.0553 202.634C27.5277 209.375 27.7869 217.152 30.8979 223.698C29.8609 222.92 29.148 221.754 28.5647 220.587C25.1945 213.912 24.7408 205.875 27.3981 198.875C30.0553 191.876 35.7587 185.719 42.9528 183.774C48.5914 182.284 54.9429 183.645 59.4149 187.339C61.6185 189.089 63.3684 191.357 64.8591 193.82Z" fill="white"/>
<path d="M151.447 261.807C155.336 257.141 160.071 248.115 163.765 245.911C158.464 255.656 146.262 287.473 113.144 287.473C75.4883 287.473 55.98 255.909 50.2766 225.448C60.3224 255.909 79.8954 257.4 93.441 267.446C104.913 276.001 116.514 277.945 126.495 276.325C136.346 274.705 145.096 269.39 151.447 261.807Z" fill="black"/>
<path d="M48.2026 210.088C46.3879 209.375 44.314 209.375 42.4992 210.088C40.6845 210.801 39.1939 212.227 38.4161 214.041C37.1199 216.893 37.8328 221.106 35.8885 223.374C35.4348 223.893 34.7867 224.282 34.1386 224.411V224.346C31.9998 221.43 30.8332 217.865 30.8332 214.301C30.8332 199.912 41.9159 200.042 43.5362 200.496C45.4806 202.051 47.1657 205.033 48.2026 210.088Z" fill="black"/>
<path d="M121.764 111.704C121.764 142.036 133.754 153.508 133.754 177.164C133.754 191.422 127.273 197.32 125.393 198.681C129.087 188.441 128.439 177.164 124.097 167.183C118.393 153.961 109.061 140.286 109.061 112.936C109.061 81.7614 128.31 53.0499 156.697 36.7822C154.104 32.3102 153.262 26.7365 153.91 21.6164C157.993 25.9587 163.373 29.1345 169.141 30.69C169.206 30.6252 169.335 30.6251 169.4 30.5603C167.65 28.1623 166.872 24.7273 167.326 21.8108C168.104 22.6533 169.27 23.3663 170.567 24.0144C175.103 26.2828 180.288 26.7365 185.214 25.5699C190.14 24.4033 195.195 23.6255 200.38 23.1718C210.685 22.3293 220.601 23.0422 229.869 25.1162C158.576 25.181 121.764 81.3725 121.764 111.704Z" fill="white"/>
<path d="M259.803 75.6172C262.821 70.5404 258.608 62.4658 250.392 57.5821C242.177 52.6984 233.071 52.855 230.053 57.9319C227.035 63.0087 231.248 71.0833 239.463 75.967C247.678 80.8507 256.785 80.6941 259.803 75.6172Z" fill="white"/>
<path d="M226.351 50.9094C231.887 48.8529 235.365 44.4657 234.119 41.1103C232.872 37.755 227.374 36.702 221.838 38.7585C216.301 40.815 212.823 45.2022 214.07 48.5575C215.316 51.9129 220.815 52.9658 226.351 50.9094Z" fill="white"/>
<path d="M224.102 61.7915C224.599 60.035 222.992 58.042 220.512 57.3399C218.033 56.6379 215.619 57.4927 215.122 59.2492C214.625 61.0057 216.232 62.9988 218.712 63.7008C221.191 64.4028 223.605 63.548 224.102 61.7915Z" fill="white"/>
<path d="M203.685 49.2902C205.153 49.2902 206.342 48.5358 206.342 47.6051C206.342 46.6745 205.153 45.92 203.685 45.92C202.218 45.92 201.028 46.6745 201.028 47.6051C201.028 48.5358 202.218 49.2902 203.685 49.2902Z" fill="white"/>
<path d="M169.465 30.6898C169.4 30.6898 169.27 30.7546 169.205 30.8194" stroke="black" stroke-width="1.2" stroke-miterlimit="10" stroke-linecap="round" stroke-linejoin="round"/>
<path d="M200.121 127.388C200.121 121.555 204.852 116.889 210.685 116.889C216.518 116.889 221.184 121.62 221.184 127.388" stroke="black" stroke-width="1.2" stroke-miterlimit="10" stroke-linecap="round" stroke-linejoin="round"/>
<path d="M135.763 129.397C135.763 123.564 140.494 118.833 146.262 118.833C152.03 118.833 156.762 123.564 156.762 129.397" stroke="black" stroke-width="1.2" stroke-miterlimit="10" stroke-linecap="round" stroke-linejoin="round"/>
<path d="M174.779 144.174C180.353 143.656 185.668 141.128 189.621 137.11" stroke="black" stroke-width="1.2" stroke-miterlimit="10" stroke-linecap="round" stroke-linejoin="round"/>
<path d="M261.108 180.793C269.598 156.229 292.995 129.397 292.995 98.1582C292.995 76.7056 283.598 57.9103 268.367 44.4296C251.386 29.4581 227.147 21.1623 200.509 23.301C195.324 23.6899 190.269 24.5325 185.343 25.6991C180.418 26.8657 175.233 26.412 170.696 24.1436C169.4 23.4955 168.233 22.7826 167.456 21.94C166.937 24.9213 167.715 28.2915 169.53 30.6895" stroke="black" stroke-width="1.2" stroke-miterlimit="10" stroke-linecap="round" stroke-linejoin="round"/>
<path d="M263.636 44.4301C278.867 57.846 288.524 76.6414 288.524 98.1587C288.524 102.566 288.005 106.973 287.163 111.315C285.801 118.185 283.533 124.796 280.552 131.148C272.839 147.61 263.053 163.424 256.442 180.858C257.22 154.285 274.848 131.148 279.45 105.029C283.144 83.7706 276.922 61.2811 263.636 44.4301Z" fill="black" stroke="black" stroke-width="1.2" stroke-miterlimit="10" stroke-linecap="round" stroke-linejoin="round"/>
<path d="M174.066 31.7268C166.483 30.8843 159.225 27.2548 153.975 21.6811C153.262 27.2548 154.299 33.3471 157.475 38.0135C160.65 42.68 165.446 46.1798 170.891 47.6704" stroke="black" stroke-width="1.2" stroke-miterlimit="10" stroke-linecap="round" stroke-linejoin="round"/>
<path d="M151.577 40.0228C156.827 43.1986 163.243 46.5687 170.891 47.6705C162.984 45.467 159.937 41.1894 156.697 37.2359C154.882 38.2081 153.392 39.0506 151.577 40.0228Z" fill="black" stroke="black" stroke-width="1.2" stroke-miterlimit="10" stroke-linecap="round" stroke-linejoin="round"/>
<path d="M253.007 265.436C259.099 269.066 266.358 270.686 273.422 269.973C282.042 269.066 290.209 264.658 295.588 258.048C297.338 255.909 298.893 253.77 300.773 250.918" stroke="black" stroke-width="1.2" stroke-miterlimit="10" stroke-linecap="round" stroke-linejoin="round"/>
<path d="M156.762 36.8466C128.309 53.1143 109.125 81.8257 109.125 113C109.125 140.286 118.523 154.026 124.162 167.247C128.504 177.228 129.087 188.505 125.458 198.81C121.958 208.467 114.245 218.578 97.1352 218.578C85.9228 218.578 74.4512 216.374 68.6829 201.921C67.97 200.107 67.1923 198.357 66.3497 196.607C64.535 193.107 62.3962 189.802 59.4149 187.339C54.8781 183.644 48.5914 182.283 42.9528 183.774C35.7587 185.654 30.0553 191.875 27.3981 198.875C24.7408 205.875 25.1945 213.911 28.5647 220.587C29.2128 221.818 29.9905 223.115 31.1571 223.892C32.6478 224.929 34.7866 224.8 35.9532 223.439C37.8327 221.17 37.1846 217.022 38.4808 214.106C39.2586 212.356 40.814 210.865 42.5639 210.152C44.3138 209.439 46.4526 209.439 48.2673 210.152" stroke="black" stroke-width="1.2" stroke-miterlimit="10" stroke-linecap="round" stroke-linejoin="round"/>
<path d="M171.279 243.336C169.335 243.53 167.65 244.113 166.289 244.826C165.446 245.28 164.669 245.798 164.021 246.447C162.53 247.743 161.428 249.363 160.586 251.113C155.401 262.585 144.448 287.472 113.144 287.472C70.7569 287.472 51.3783 247.548 48.8507 214.106C46.9711 197.514 39.3234 197.903 35.4995 199.069" stroke="black" stroke-width="1.2" stroke-miterlimit="10" stroke-linecap="round" stroke-linejoin="round"/>
<path d="M58.8964 273.214L45.3508 281.186C41.1381 283.649 35.6939 282.223 33.2959 278.01C32.6478 276.844 32.2589 275.612 32.1293 274.381C31.87 271.464 33.1015 268.548 35.4347 266.668L31.7404 260.187C30.2498 257.595 31.1571 254.289 33.7496 252.863C34.4625 252.475 35.1754 252.215 35.9532 252.151C37.9623 251.956 40.0363 252.928 41.1381 254.808L44.7675 261.095L46.8415 259.863L43.2768 253.576C41.7862 250.984 42.6935 247.679 45.286 246.253C45.9989 245.864 46.7118 245.605 47.4896 245.54C48.4618 245.475 49.4339 245.605 50.2765 246.058C49.758 251.243 50.8598 257.66 53.7115 264.076C55.0725 267.576 56.8872 270.622 58.8964 273.214Z" fill="white" stroke="black" stroke-width="1.2" stroke-miterlimit="10" stroke-linecap="round" stroke-linejoin="round"/>
<path d="M164.021 246.447C163.437 239.188 160.715 232.059 157.021 226.42C157.215 226.55 157.41 226.679 157.669 226.809C163.826 230.698 168.104 236.66 171.344 243.336" fill="black"/>
<path d="M164.021 246.447C163.437 239.188 160.715 232.059 157.021 226.42C157.215 226.55 157.41 226.679 157.669 226.809C163.826 230.698 168.104 236.66 171.344 243.336" stroke="black" stroke-width="1.2" stroke-miterlimit="10" stroke-linecap="round" stroke-linejoin="round"/>
<path d="M246.849 48.9669C249.069 48.9669 250.868 47.9513 250.868 46.6985C250.868 45.4457 249.069 44.4301 246.849 44.4301C244.63 44.4301 242.831 45.4457 242.831 46.6985C242.831 47.9513 244.63 48.9669 246.849 48.9669Z" fill="white"/>
<path d="M81.1917 274.64C80.2843 278.01 78.5344 280.473 76.0067 281.575C71.0163 283.778 64.3407 280.214 58.9613 273.214C56.9522 270.622 55.1375 267.576 53.6468 264.205C50.7951 257.789 49.6933 251.308 50.2118 246.188C50.471 243.336 51.2488 240.873 52.4802 238.994C53.3876 237.633 54.5542 236.596 55.98 235.948C57.9244 235.105 60.1279 235.105 62.3963 235.883C60.7113 241.521 61.7482 249.817 65.7017 257.984C69.5904 266.409 75.6179 272.566 81.1917 274.64Z" fill="#FFE84D" stroke="black" stroke-width="1.2" stroke-miterlimit="10" stroke-linecap="round" stroke-linejoin="round"/>
<path d="M295.653 249.882C299.736 249.623 303.689 252.345 304.985 253.836C307.513 256.752 308.55 259.928 308.096 264.659C307.643 269.002 304.143 275.677 310.3 278.918C317.559 282.677 327.021 270.816 329.419 260.382C331.364 252.021 329.29 243.142 323.846 236.466C322.16 234.392 320.087 232.578 317.753 231.152C315.42 229.726 312.828 228.689 310.17 228.106C300.578 226.161 291.699 230.504 291.699 230.504C289.949 231.281 288.264 232.124 286.514 232.902C282.82 234.652 278.866 236.207 274.783 236.337H274.719C271.024 236.466 267.46 234.976 264.802 232.448C244.452 213.199 261.043 180.793 261.043 180.793" stroke="black" stroke-width="1.2" stroke-miterlimit="10" stroke-linecap="round" stroke-linejoin="round"/>
<path d="M93.5058 267.381C92.7281 270.816 91.043 273.408 88.5153 274.64C87.5432 275.093 86.5062 275.353 85.4692 275.353C84.1081 275.417 82.6823 275.158 81.1916 274.575C75.6178 272.501 69.6552 266.344 65.6369 257.918C61.7482 249.752 60.7112 241.456 62.3315 235.818C63.1741 232.901 64.7943 230.697 67.0627 229.596C72.0532 227.262 78.9232 230.697 84.5618 237.632L83.0712 238.54L74.5809 243.595C74.7105 246.382 75.553 249.752 77.1733 253.122C78.0159 254.937 79.0529 256.557 80.0898 257.983C80.6083 258.631 81.1268 259.279 81.6453 259.798L91.8207 253.77L92.6633 253.252C94.0891 258.566 94.3483 263.492 93.5058 267.381Z" fill="#FFE84D" stroke="black" stroke-width="1.2" stroke-miterlimit="10" stroke-linecap="round" stroke-linejoin="round"/>
<path d="M61.5341 236.322C61.2914 237.065 61.2446 237.864 61.1232 238.731C59.7883 238.607 59.1367 238.876 57.9838 239.372C56.6488 239.991 55.5566 240.983 54.707 242.284C53.5541 244.081 52.826 246.435 52.5832 249.161C52.0978 254.118 53.19 260.251 55.7993 266.385C56.4061 267.81 57.0736 269.173 57.8017 270.474C56.4061 268.43 55.1318 266.075 54.0396 263.535C51.3697 257.401 50.3381 251.206 50.8235 246.311C51.0663 243.585 51.7944 241.231 52.9473 239.434C53.7968 238.133 54.8891 237.141 56.224 236.522C58.0444 235.778 59.3496 235.64 61.5341 236.322Z" fill="white"/>
<path d="M83.735 237.448L83.4918 237.637C78.8103 232.977 73.7033 230.961 69.8122 232.851C67.6234 233.921 66.1643 236.063 65.3739 238.897C63.7931 244.376 64.7659 252.438 68.4746 260.373C69.5082 262.641 70.7241 264.782 72.0009 266.671C71.0889 265.601 70.177 264.341 69.3258 263.081C68.1098 261.255 67.0154 259.303 66.0427 257.161C62.8812 250.296 61.726 243.306 62.4556 238.078C62.5772 237.259 62.7596 236.441 62.942 235.685C63.7323 232.851 65.2523 230.709 67.3802 229.639C71.9401 227.308 78.3847 230.646 83.735 237.448Z" fill="white"/>
<path d="M81.5804 259.863C84.3673 262.844 87.4135 264.27 89.5522 263.298" stroke="black" stroke-width="1.2" stroke-miterlimit="10" stroke-linecap="round" stroke-linejoin="round"/>
<path d="M74.5808 243.596C74.4511 240.42 75.2937 237.957 77.1084 237.114" stroke="black" stroke-width="1.2" stroke-miterlimit="10" stroke-linecap="round" stroke-linejoin="round"/>
<path d="M146.716 240.16C142.309 250.271 132.652 257.724 120.921 258.761C111.847 259.539 103.357 256.428 97.1353 250.724C94.4132 248.261 92.1448 245.28 90.4597 241.91L118.199 227.716L146.716 240.16Z" stroke="black" stroke-width="1.2" stroke-miterlimit="10" stroke-linecap="round" stroke-linejoin="round"/>
<path d="M134.531 201.209L118.134 227.717L90.3948 241.91C89.3578 239.966 88.5801 237.827 87.9968 235.689C87.5431 234.003 87.2839 232.318 87.0894 230.504C85.5339 213.393 98.237 198.228 115.347 196.737C122.347 196.024 129.022 197.774 134.531 201.209Z" fill="white" stroke="black" stroke-width="1.2" stroke-miterlimit="10" stroke-linecap="round" stroke-linejoin="round"/>
<path d="M149.179 224.929C149.633 230.309 148.725 235.494 146.716 240.16L118.134 227.716L134.532 201.208C142.633 206.199 148.272 214.754 149.179 224.929Z" fill="black" stroke="black" stroke-width="1.2" stroke-miterlimit="10" stroke-linecap="round" stroke-linejoin="round"/>
<path d="M97.1352 250.66L92.5984 253.317L91.7558 253.836L81.5804 259.863C81.0619 259.28 80.5435 258.696 80.025 258.048C78.988 256.622 77.951 255.002 77.1084 253.187C75.4882 249.817 74.6456 246.447 74.516 243.66L83.0063 238.67L84.497 237.762L87.9968 235.688C88.5801 237.892 89.3578 239.966 90.3948 241.91C92.1447 245.216 94.4131 248.197 97.1352 250.66Z" fill="white"/>
<path d="M97.1352 250.66L93.6353 252.734L92.6632 253.317C85.9876 243.66 88.1264 235.623 88.1264 235.623C88.4504 236.79 88.7745 237.892 89.2282 238.993C89.617 239.966 90.0059 240.938 90.5244 241.845C92.1447 245.215 94.4131 248.197 97.1352 250.66Z" fill="black"/>
<path d="M278.607 180.858C276.209 185.719 278.413 192.135 283.792 198.162L283.598 198.616L282.496 200.885H282.172C277.959 200.82 273.682 201.468 269.728 203.153C265.839 204.773 262.34 207.495 260.006 211.06C257.673 214.625 256.636 219.032 257.479 223.18C258.321 227.328 261.821 231.994 267.33 234.457C260.914 234.781 252.164 234.457 245.618 227.652C240.693 222.143 240.693 214.625 242.119 208.079C244.646 196.737 251.775 186.95 261.627 180.923C262.729 180.275 263.83 179.626 264.932 179.108C265.127 178.978 265.321 178.913 265.515 178.784C265.775 178.654 265.969 178.525 266.228 178.46C266.423 178.33 266.617 178.265 266.876 178.136C267.978 177.617 269.08 177.164 270.182 176.775C270.376 176.71 270.506 176.645 270.7 176.58C270.96 176.451 271.219 176.386 271.478 176.256C271.673 176.191 271.932 176.127 272.126 175.997H272.191C272.515 175.867 272.774 175.803 273.098 175.673C273.293 175.608 273.487 175.543 273.682 175.478C274.135 175.349 274.654 175.219 275.108 175.09C275.302 175.025 275.561 174.96 275.756 174.895C276.144 174.83 276.469 174.701 276.857 174.636C277.441 174.506 277.959 174.377 278.543 174.247C278.867 174.182 279.191 174.117 279.515 174.053C279.58 174.053 279.644 174.053 279.709 173.988C280.098 173.923 280.487 173.858 280.876 173.793C280.876 173.793 280.876 173.793 280.941 173.793C281.329 173.729 281.718 173.729 282.042 173.664C282.172 173.664 282.237 173.664 282.366 173.599C282.69 173.534 283.079 173.534 283.403 173.534C283.792 173.534 284.116 173.469 284.505 173.469C284.635 173.469 284.7 173.469 284.829 173.469C285.218 173.469 285.542 173.469 285.931 173.469H286.32C286.45 173.923 286.644 174.441 286.838 174.895C286.709 174.895 286.644 174.96 286.514 174.96C282.885 175.997 280.033 177.941 278.607 180.858Z" fill="#FFE84D"/>
<path d="M317.429 218.384L316.263 220.782C316.198 220.846 316.198 220.911 316.198 220.976C316.198 221.041 316.133 221.041 316.133 221.106C313.735 225.707 304.078 225.642 294.421 220.911C284.894 216.245 278.931 208.727 280.94 203.995C281.005 203.931 281.005 203.801 281.07 203.736C281.135 203.671 281.135 203.607 281.135 203.542L282.496 200.755L283.598 198.486C285.348 202.894 297.338 216.504 317.429 218.384Z" fill="white" stroke="black" stroke-width="1.2" stroke-miterlimit="10" stroke-linecap="round" stroke-linejoin="round"/>
<path d="M319.179 214.819L317.429 218.384C297.273 216.504 285.348 202.894 283.598 198.551L283.792 198.098C287.551 202.31 292.866 206.329 299.217 209.44C306.217 212.875 313.217 214.689 319.179 214.819Z" fill="black" stroke="black" stroke-width="1.2" stroke-miterlimit="10" stroke-linecap="round" stroke-linejoin="round"/>
<path d="M316.068 221.106C315.809 221.624 315.55 222.078 315.226 222.596C313.865 224.8 312.115 226.615 310.17 228.041C304.921 231.8 298.051 232.901 291.699 230.439C291.181 230.244 290.597 229.985 290.079 229.726C282.107 225.837 277.959 217.217 279.385 208.856C279.579 207.884 279.774 206.977 280.098 206.07C280.292 205.357 280.616 204.709 280.876 203.996C278.867 208.727 284.829 216.245 294.356 220.911C304.013 225.643 313.67 225.707 316.068 221.106Z" fill="#FFE84D" stroke="black" stroke-width="1.2" stroke-miterlimit="10" stroke-linecap="round" stroke-linejoin="round"/>
<path d="M340.308 171.849L338.169 176.191L333.567 185.589C330.262 185.913 325.595 185.135 320.411 183.321C318.401 182.608 316.327 181.7 314.189 180.663C311.855 179.497 309.652 178.265 307.707 176.969C303.365 174.117 300.125 171.071 298.439 168.349L303.041 158.951L305.18 154.544" fill="white"/>
<path d="M340.308 171.849L338.169 176.191L333.567 185.589C330.262 185.913 325.595 185.135 320.411 183.321C318.401 182.608 316.327 181.7 314.189 180.663C311.855 179.497 309.652 178.265 307.707 176.969C303.365 174.117 300.125 171.071 298.439 168.349L303.041 158.951L305.18 154.544" stroke="black" stroke-width="1.2" stroke-miterlimit="10" stroke-linecap="round" stroke-linejoin="round"/>
<path d="M311.855 166.081C308.874 163.812 306.735 161.414 305.634 159.211C304.791 157.461 304.597 155.905 305.245 154.609C305.698 153.702 306.541 152.989 307.643 152.535L323.975 145.341C325.271 147.026 327.281 148.711 329.808 149.943C332.271 151.174 334.799 151.757 336.873 151.757L340.502 168.738L340.567 168.932C340.826 169.969 340.761 170.941 340.372 171.784C340.372 171.784 340.372 171.784 340.372 171.849C339.724 173.145 338.363 173.923 336.484 174.312C332.401 175.154 325.855 173.858 319.179 170.617C317.688 169.904 316.263 169.062 314.966 168.284" fill="#FFE84D"/>
<path d="M311.855 166.081C308.874 163.812 306.735 161.414 305.634 159.211C304.791 157.461 304.597 155.905 305.245 154.609C305.698 153.702 306.541 152.989 307.643 152.535L323.975 145.341C325.271 147.026 327.281 148.711 329.808 149.943C332.271 151.174 334.799 151.757 336.873 151.757L340.502 168.738L340.567 168.932C340.826 169.969 340.761 170.941 340.372 171.784C340.372 171.784 340.372 171.784 340.372 171.849C339.724 173.145 338.363 173.923 336.484 174.312C332.401 175.154 325.855 173.858 319.179 170.617C317.688 169.904 316.263 169.062 314.966 168.284" stroke="black" stroke-width="1.2" stroke-miterlimit="10" stroke-linecap="round" stroke-linejoin="round"/>
<path d="M298.375 168.414C297.143 166.47 296.819 164.72 297.467 163.359" stroke="black" stroke-width="1.2" stroke-miterlimit="10" stroke-linecap="round" stroke-linejoin="round"/>
<path d="M338.039 183.256C337.391 184.617 335.771 185.395 333.502 185.654" stroke="black" stroke-width="1.2" stroke-miterlimit="10" stroke-linecap="round" stroke-linejoin="round"/>
<path d="M342.835 192.913C341.345 195.894 338.363 197.903 334.41 198.811C327.41 200.496 317.429 198.94 307.578 194.144C297.273 189.089 289.755 181.701 287.097 174.895C286.903 174.442 286.709 173.923 286.579 173.469C285.736 170.553 285.801 167.831 286.968 165.498C289.301 160.831 295.393 158.628 303.041 158.952L298.439 168.349C300.124 171.071 303.365 174.118 307.707 176.969C309.652 178.266 311.855 179.497 314.189 180.664C316.263 181.701 318.401 182.543 320.41 183.321C325.595 185.136 330.262 185.978 333.567 185.589L338.169 176.192C343.159 182.025 345.104 188.246 342.835 192.913Z" fill="#FFE84D" stroke="black" stroke-width="1.2" stroke-miterlimit="10" stroke-linecap="round" stroke-linejoin="round"/>
<path d="M335.382 204.968C335.317 206.134 334.993 207.236 334.475 208.273C332.271 212.81 326.503 215.014 319.179 214.819C313.217 214.689 306.152 212.875 299.217 209.505C292.866 206.394 287.551 202.375 283.792 198.163C278.413 192.135 276.209 185.719 278.607 180.858C280.033 177.941 282.885 175.997 286.709 175.025C288.07 182.543 293.579 188.765 299.736 193.302C310.041 200.82 322.679 204.903 335.382 204.968Z" fill="#FFE84D" stroke="black" stroke-width="1.2" stroke-miterlimit="10" stroke-linecap="round" stroke-linejoin="round"/>
<path d="M342.835 192.913C341.345 195.894 338.363 197.904 334.41 198.811C327.41 200.496 317.429 198.941 307.578 194.145C297.273 189.089 289.755 181.701 287.097 174.896C286.903 174.442 286.709 173.923 286.579 173.47C285.736 170.553 285.801 167.831 286.968 165.498C289.301 160.831 295.393 158.628 303.041 158.952L298.439 168.35C300.124 171.072 303.365 174.118 307.707 176.969C309.652 178.266 311.855 179.497 314.189 180.664C316.263 181.701 318.401 182.543 320.41 183.321C325.595 185.136 330.262 185.978 333.567 185.589L338.169 176.192C343.159 182.025 345.104 188.247 342.835 192.913Z" fill="#FFE84D"/>
<path d="M335.382 204.968C335.317 206.135 334.993 207.237 334.475 208.274C332.271 212.81 326.503 215.014 319.179 214.819C313.217 214.69 306.152 212.875 299.217 209.505C292.866 206.394 287.551 202.376 283.792 198.163C278.413 192.135 276.209 185.719 278.607 180.858C280.033 177.942 282.885 175.997 286.709 175.025C288.07 182.543 293.579 188.765 299.736 193.302C310.041 200.82 322.679 204.903 335.382 204.968Z" fill="#FFE84D"/>
<path d="M303.041 159.016L300.254 164.655C295.393 165.368 291.634 167.507 289.949 170.942C288.783 173.275 288.718 176.062 289.56 178.913C289.69 179.367 289.885 179.886 290.079 180.339C290.079 180.339 290.079 180.404 290.144 180.404C288.783 178.589 287.746 176.775 287.033 174.96C286.838 174.506 286.644 173.988 286.514 173.534C285.672 170.618 285.737 167.895 286.903 165.562C289.236 160.831 295.329 158.627 303.041 159.016Z" fill="white"/>
<path d="M281.653 186.173C280.292 188.96 280.422 192.265 281.848 195.7C277.959 190.45 276.533 185.006 278.607 180.793C280.033 177.877 282.885 175.932 286.709 174.96C287.097 176.969 287.746 178.849 288.588 180.664C285.412 181.765 282.95 183.58 281.653 186.173Z" fill="white"/>
<path d="M342.835 192.913C341.345 195.894 338.363 197.904 334.41 198.811C327.41 200.496 317.429 198.941 307.578 194.145C297.273 189.089 289.755 181.701 287.097 174.896C286.903 174.442 286.709 173.923 286.579 173.47C285.736 170.553 285.801 167.831 286.968 165.498C289.301 160.831 295.393 158.628 303.041 158.952L298.439 168.35C300.124 171.072 303.365 174.118 307.707 176.969C309.652 178.266 311.855 179.497 314.189 180.664C316.263 181.701 318.401 182.543 320.41 183.321C325.595 185.136 330.262 185.978 333.567 185.589L338.169 176.192C343.159 182.025 345.104 188.247 342.835 192.913Z" stroke="black" stroke-width="1.2" stroke-miterlimit="10" stroke-linecap="round" stroke-linejoin="round"/>
<path d="M298.375 168.415C297.143 166.47 296.819 164.72 297.467 163.359" stroke="black" stroke-width="1.2" stroke-miterlimit="10" stroke-linecap="round" stroke-linejoin="round"/>
<path d="M338.039 183.256C337.391 184.617 335.771 185.395 333.502 185.654" stroke="black" stroke-width="1.2" stroke-miterlimit="10" stroke-linecap="round" stroke-linejoin="round"/>
<path d="M335.382 204.968C335.317 206.135 334.993 207.237 334.475 208.274C332.271 212.81 326.503 215.014 319.179 214.819C313.217 214.69 306.152 212.875 299.217 209.505C292.866 206.394 287.551 202.376 283.792 198.163C278.413 192.135 276.209 185.719 278.607 180.858C280.033 177.942 282.885 175.997 286.709 175.025C288.07 182.543 293.579 188.765 299.736 193.302C310.041 200.82 322.679 204.903 335.382 204.968Z" stroke="black" stroke-width="1.2" stroke-miterlimit="10" stroke-linecap="round" stroke-linejoin="round"/>
<path d="M335.382 204.968C322.679 204.968 309.976 200.82 299.736 193.302C293.579 188.765 288.005 182.608 286.709 175.025C286.838 174.96 286.903 174.96 287.033 174.96C289.69 181.766 297.273 189.154 307.513 194.209C317.365 199.005 327.346 200.561 334.345 198.876C335.252 200.95 335.577 203.024 335.382 204.968Z" fill="black" stroke="black" stroke-width="1.2" stroke-miterlimit="10" stroke-linecap="round" stroke-linejoin="round"/>
<path d="M336.873 151.757C334.799 151.757 332.271 151.174 329.808 149.943C327.281 148.711 325.207 147.026 323.975 145.341L334.539 140.675L336.873 151.757Z" fill="black" stroke="black" stroke-width="1.2" stroke-miterlimit="10" stroke-linecap="round" stroke-linejoin="round"/>
<path d="M267.654 234.522C267.589 234.457 267.46 234.392 267.395 234.392" stroke="black" stroke-width="1.2" stroke-miterlimit="10" stroke-linecap="round" stroke-linejoin="round"/>
<path d="M279.774 208.856L279.45 208.921" stroke="black" stroke-width="1.2" stroke-miterlimit="10" stroke-linecap="round" stroke-linejoin="round"/>
<path d="M282.496 200.82L281.135 203.607C281.07 203.672 281.07 203.736 281.07 203.801C281.005 203.866 281.005 203.996 280.94 204.061C280.616 204.709 280.357 205.422 280.163 206.134C279.839 207.042 279.644 208.014 279.45 208.921H279.32C274.2 210.412 268.95 212.616 265.515 216.699C262.08 220.782 260.849 227.198 263.96 231.541C264.219 231.929 264.543 232.253 264.867 232.578C265.515 233.226 266.552 233.809 267.395 234.327C261.886 231.865 258.321 227.198 257.543 223.05C256.701 218.902 257.738 214.495 260.071 210.931C262.404 207.366 265.904 204.709 269.793 203.024C273.681 201.403 277.959 200.755 282.237 200.755L282.496 200.82Z" fill="black" stroke="black" stroke-width="1.2" stroke-miterlimit="10" stroke-linecap="round" stroke-linejoin="round"/>
<path d="M282.755 200.82H282.496" stroke="black" stroke-width="1.2" stroke-miterlimit="10" stroke-linecap="round" stroke-linejoin="round"/>
<path d="M286.709 175.025C286.709 174.96 286.644 174.83 286.644 174.765" stroke="black" stroke-width="1.2" stroke-miterlimit="10" stroke-linecap="round" stroke-linejoin="round"/>
<path d="M247.952 193.172C257.025 180.663 273.293 173.34 286.514 173.469" stroke="black" stroke-width="1.2" stroke-miterlimit="10" stroke-linecap="round" stroke-linejoin="round"/>
<path d="M253.007 265.436C252.618 267.057 252.164 268.612 251.581 270.168C250.479 273.084 249.118 275.806 247.368 278.399C241.146 287.537 231.813 294.407 220.795 295.768C209.777 297.064 198.306 292.852 190.723 284.815C185.603 279.371 182.427 272.631 179.835 265.566C182.686 269.649 187.677 272.89 187.677 272.89C192.732 276.649 199.213 278.528 205.63 278.204C212.046 277.88 218.268 275.223 222.805 270.945C226.823 267.122 229.48 262.196 231.23 257.076C232.98 251.956 233.823 246.641 234.795 241.391C235.378 238.28 236.221 234.845 239.072 233.16C241.47 231.734 245.424 231.54 249.053 235.623C254.108 244.567 255.405 255.455 253.007 265.436Z" fill="black"/>
<path d="M253.007 265.437C252.618 267.057 252.164 268.613 251.581 270.168C250.479 273.084 249.118 275.807 247.368 278.399C241.146 287.537 231.813 294.407 220.795 295.768C209.777 297.065 198.306 292.852 190.723 284.815C185.603 279.371 182.427 272.631 179.834 265.566C182.686 269.649 187.677 272.89 187.677 272.89C192.732 276.649 199.213 278.529 205.629 278.205C212.046 277.881 218.268 275.223 222.804 270.946C226.823 267.122 229.48 262.196 231.23 257.076C232.98 251.956 233.822 246.641 234.795 241.392C235.378 238.281 236.22 234.846 239.072 233.161C241.47 231.735 245.424 231.54 249.053 235.624C254.108 244.567 255.405 255.456 253.007 265.437Z" stroke="black" stroke-width="1.2" stroke-miterlimit="10" stroke-linecap="round" stroke-linejoin="round"/>
<path d="M157.021 226.42C157.215 226.55 157.41 226.679 157.669 226.809C163.826 230.698 168.104 236.66 171.344 243.336C173.094 246.901 174.52 250.595 175.816 254.224C177.113 257.983 178.409 261.807 179.835 265.501C182.686 269.585 187.677 272.825 187.677 272.825C192.732 276.584 199.213 278.464 205.63 278.14C212.046 277.816 218.268 275.158 222.805 270.881C226.823 267.057 229.48 262.131 231.23 257.011C232.98 251.891 233.823 246.576 234.795 241.327C235.378 238.216 236.221 234.781 239.072 233.096C241.47 231.67 245.424 231.475 249.053 235.559C248.988 235.429 248.924 235.364 248.859 235.234C248.535 234.716 248.211 234.197 247.887 233.679C247.238 232.707 246.526 231.799 245.683 230.957L245.618 230.892C245.489 230.762 245.359 230.633 245.229 230.503C245.165 230.438 245.1 230.374 245.035 230.309C244.905 230.244 244.84 230.114 244.711 230.05C244.516 229.92 244.322 229.79 244.192 229.661C243.998 229.531 243.739 229.337 243.544 229.207C241.211 227.846 238.165 227.457 235.896 228.883C233.239 230.568 232.461 234.003 231.878 237.114C231.295 240.484 230.712 243.919 229.999 247.289C229.739 248.391 229.48 249.428 229.221 250.465C226.434 252.15 222.934 252.28 219.953 251.048C218.981 250.66 218.073 250.141 217.231 249.493C214.638 247.549 212.5 244.762 210.944 241.521C208.87 237.244 207.704 232.448 206.861 227.587" stroke="black" stroke-width="1.2" stroke-miterlimit="10" stroke-linecap="round" stroke-linejoin="round"/>
<path d="M204.528 274.122C210.555 273.798 216.388 271.14 220.666 266.863C224.425 263.039 226.888 258.113 228.508 252.993C228.767 252.215 228.962 251.438 229.221 250.66" stroke="black" stroke-width="1.2" stroke-miterlimit="10" stroke-linecap="round" stroke-linejoin="round"/>
<path d="M193.769 271.918C195.649 272.89 197.917 273.603 200.25 273.927" stroke="black" stroke-width="1.2" stroke-miterlimit="10" stroke-linecap="round" stroke-linejoin="round"/>
<path d="M249.053 235.624C249.053 235.624 248.989 235.624 249.053 235.624" stroke="black" stroke-width="1.2" stroke-miterlimit="10" stroke-linecap="round" stroke-linejoin="round"/>
<path d="M250.479 264.853C249.312 269.973 246.461 273.733 244.063 273.214C241.665 272.696 240.692 268.094 241.859 262.909C243.026 257.789 245.877 254.03 248.275 254.548C250.609 255.132 251.646 259.733 250.479 264.853Z" fill="#FFE84D"/>
<path d="M243.998 248.909C243.479 251.242 241.794 252.863 240.239 252.474C238.683 252.15 237.841 249.946 238.359 247.613C238.878 245.28 240.563 243.659 242.118 244.048C243.674 244.372 244.516 246.576 243.998 248.909Z" fill="#FFE84D"/>
<path d="M239.202 257.4C238.942 258.566 238.035 259.409 237.193 259.215C236.35 259.02 235.831 257.918 236.156 256.687C236.415 255.52 237.322 254.678 238.165 254.872C239.007 255.067 239.461 256.233 239.202 257.4Z" fill="#FFE84D"/>
<path d="M226.823 284.945C225.202 286.695 223.193 287.472 222.221 286.63C221.314 285.787 221.832 283.713 223.453 281.899C225.073 280.149 227.082 279.371 228.054 280.214C228.961 281.056 228.443 283.13 226.823 284.945Z" fill="#FFE84D"/>
<path d="M97.1352 250.66L92.5984 253.317L91.7558 253.836L81.5804 259.863C81.0619 259.28 80.5435 258.696 80.025 258.048C78.988 256.622 77.951 255.002 77.1084 253.187C75.4882 249.817 74.6456 246.447 74.516 243.66L83.0063 238.67L84.497 237.762L87.9968 235.688C88.5801 237.892 89.3578 239.966 90.3948 241.91C92.1447 245.216 94.4131 248.197 97.1352 250.66Z" stroke="black" stroke-width="1.2" stroke-miterlimit="10" stroke-linecap="round" stroke-linejoin="round"/>
</svg>
