<svg width="368" height="298" viewBox="0 0 368 298" fill="none" xmlns="http://www.w3.org/2000/svg">
<path d="M141.366 274.851C155.722 280.109 171.078 282.981 187.241 282.981V292.175C187.241 294.014 188.758 295.563 190.629 295.498C268.862 293.724 331.997 230.621 333.772 152.355C333.804 150.516 332.288 148.968 330.449 148.968H321.254C321.254 74.9606 261.281 14.9871 187.274 14.9871V5.82489C187.274 3.95374 185.757 2.43746 183.886 2.50199C145.979 3.37304 111.621 18.6326 86.038 43.022C84.683 44.3125 84.683 46.4417 86.0057 47.7644L92.4902 54.2812C69.4235 77.3479 54.7124 108.803 53.3574 143.709" fill="#FF642D"/>
<path d="M141.366 274.851C155.722 280.109 171.078 282.981 187.241 282.981V292.175C187.241 294.014 188.758 295.563 190.629 295.498C268.862 293.724 331.997 230.621 333.772 152.355C333.804 150.516 332.288 148.968 330.449 148.968H321.254C321.254 74.9606 261.281 14.9871 187.274 14.9871V5.82489C187.274 3.95374 185.757 2.43746 183.886 2.50199C145.979 3.37304 111.621 18.6326 86.038 43.022C84.683 44.3125 84.683 46.4417 86.0057 47.7644L92.4902 54.2812C69.4235 77.3479 54.7124 108.803 53.3574 143.709" stroke="white" stroke-width="2" stroke-miterlimit="10" stroke-linecap="round" stroke-linejoin="round"/>
<path d="M123.3 114.706C69.6494 114.706 26.1614 143.096 26.1614 178.1C26.1614 213.103 69.6494 241.493 123.3 241.493C176.95 241.493 220.438 213.103 220.438 178.1C220.438 143.096 176.95 114.706 123.3 114.706Z" fill="#FF642D"/>
<path d="M123.3 241.493C69.6494 241.493 26.1614 213.103 26.1614 178.1V212.264C26.1614 247.268 69.6494 275.657 123.3 275.657C176.95 275.657 220.438 247.268 220.438 212.264L220.406 177.616C220.406 212.651 176.95 241.493 123.3 241.493Z" fill="#FF642D" stroke="white" stroke-width="1.2" stroke-miterlimit="10" stroke-linecap="round" stroke-linejoin="round"/>
<path d="M164.949 255.623C164.756 245.622 164.562 235.589 164.401 225.588C164.336 220.781 164.239 215.942 164.175 211.103C167.24 209.522 170.821 207.941 174.886 206.586C176.853 205.941 178.725 205.425 180.499 204.973C180.66 207.425 180.822 209.877 180.983 212.361C181.725 224.749 182.047 236.783 182.047 248.493" stroke="black" stroke-width="1.2" stroke-miterlimit="10" stroke-linecap="round" stroke-linejoin="round"/>
<path d="M135.817 261.204C135.817 255.623 136.172 241.848 136.333 236.073C136.398 233.169 136.398 230.395 136.333 227.75C138.527 225.427 140.624 224.491 142.108 224.072C144.431 223.427 145.915 223.846 149.948 223.33C151.883 223.072 153.432 222.717 154.464 222.459C154.593 225.233 154.69 228.008 154.787 230.814C155.206 241.815 157.593 248.687 157.593 257.656" stroke="black" stroke-width="1.2" stroke-miterlimit="10" stroke-linecap="round" stroke-linejoin="round"/>
<path d="M99.4266 259.785C99.3298 257.656 99.3298 254.494 99.7814 250.655C100.265 246.751 100.685 246.558 101.394 242.203C102.072 238.009 101.878 236.912 102.685 227.427C102.911 224.911 103.104 222.846 103.233 221.523C106.75 221.717 109.234 222.556 110.847 223.33C111.783 223.781 112.75 224.362 114.493 225.04C116.299 225.749 117.848 226.137 118.88 226.395C118.557 230.556 118.267 234.718 117.944 238.88C117.815 242.074 117.719 245.364 117.719 248.784C117.719 253.236 117.815 257.527 118.009 261.656" stroke="black" stroke-width="1.2" stroke-miterlimit="10" stroke-linecap="round" stroke-linejoin="round"/>
<path d="M77.4889 253.429C77.3922 251.72 77.3276 249.171 77.8116 246.138C78.3277 242.751 79.1343 241.106 79.844 238.105C80.3925 235.75 80.9732 232.331 80.8764 227.975C82.3926 227.782 84.3928 227.653 86.7156 227.943C89.8127 228.33 92.2646 229.266 93.9099 230.04C93.2001 234.266 92.6194 238.783 92.1678 243.59C91.6839 248.784 91.458 253.688 91.3935 258.236" stroke="black" stroke-width="1.2" stroke-miterlimit="10" stroke-linecap="round" stroke-linejoin="round"/>
<path d="M181.66 225.427C181.951 233.266 182.112 240.944 182.08 248.494" stroke="white" stroke-width="1.2" stroke-miterlimit="10" stroke-linecap="round" stroke-linejoin="round"/>
<path d="M164.949 255.623C164.787 248.01 164.658 240.396 164.529 232.815" stroke="white" stroke-width="1.2" stroke-miterlimit="10" stroke-linecap="round" stroke-linejoin="round"/>
<path d="M155.109 235.718C155.884 244.041 157.593 250.107 157.593 257.656" stroke="white" stroke-width="1.2" stroke-miterlimit="10" stroke-linecap="round" stroke-linejoin="round"/>
<path d="M135.817 261.204C135.817 256.398 136.075 245.525 136.237 238.944" stroke="white" stroke-width="1.2" stroke-miterlimit="10" stroke-linecap="round" stroke-linejoin="round"/>
<path d="M117.944 238.847C117.815 242.041 117.719 245.332 117.719 248.752C117.719 253.204 117.815 257.494 118.009 261.624" stroke="white" stroke-width="1.2" stroke-miterlimit="10" stroke-linecap="round" stroke-linejoin="round"/>
<path d="M99.4266 259.785C99.3298 257.656 99.3298 254.494 99.7814 250.655C100.265 246.751 100.685 246.558 101.394 242.203C101.717 240.17 101.846 238.88 101.975 237.009" stroke="white" stroke-width="1.2" stroke-miterlimit="10" stroke-linecap="round" stroke-linejoin="round"/>
<path d="M93.0709 235.718C92.7482 238.234 92.4256 240.88 92.1998 243.59C91.7159 248.784 91.4901 253.688 91.4255 258.236" stroke="white" stroke-width="1.2" stroke-miterlimit="10" stroke-linecap="round" stroke-linejoin="round"/>
<path d="M77.4889 253.429C77.3922 251.72 77.3276 249.171 77.8116 246.138C78.3277 242.751 79.1343 241.106 79.844 238.105C80.1666 236.718 80.5215 234.944 80.7151 232.782" stroke="white" stroke-width="1.2" stroke-miterlimit="10" stroke-linecap="round" stroke-linejoin="round"/>
<path d="M33.4201 200.295C24.9999 233.686 69.6816 261.721 123.3 261.721C176.95 261.721 220.438 233.331 220.438 198.327" stroke="white" stroke-width="1.2" stroke-miterlimit="10" stroke-linecap="round" stroke-linejoin="round"/>
<path d="M220.438 212.264V200.328L220.406 200.295C219.664 207.586 217.083 224.878 195.113 241.009C182.725 250.074 155.852 262.753 159.916 266.592C162.078 268.624 174.305 264.431 198.307 252.591C212.115 241.622 220.438 227.588 220.438 212.264Z" fill="white"/>
<path d="M26.1936 178.1V212.264C26.1936 247.268 69.6817 275.657 123.332 275.657C176.982 275.657 220.47 247.268 220.47 212.264V178.1" stroke="white" stroke-width="1.2" stroke-miterlimit="10" stroke-linecap="round" stroke-linejoin="round"/>
<path d="M33.4201 188.23C47.9376 165.131 82.7152 148.871 123.3 148.871C163.884 148.871 198.694 165.131 213.179 188.23C214.599 190.488 215.825 192.811 216.825 195.198C219.148 189.778 220.406 184.036 220.406 178.1C220.406 143.096 176.918 114.706 123.268 114.706C69.6172 114.706 26.1936 143.096 26.1936 178.1C26.1936 184.036 27.4518 189.746 29.7746 195.198C30.7747 192.811 32.0006 190.488 33.4201 188.23Z" fill="white" stroke="white" stroke-width="1.2" stroke-miterlimit="10" stroke-linecap="round" stroke-linejoin="round"/>
<path d="M26.1936 178.1C26.1936 181.035 28.839 184.165 28.839 184.165C30.0649 186.713 31.1941 188.81 32.0974 190.423C33.4846 187.972 35.3235 185.229 37.6463 182.326C39.8401 179.648 42.0338 177.422 44.0018 175.615C44.2599 174.712 44.6793 164.776 51.4218 154.904C67.3911 131.514 89.9417 125.578 119.106 120.481C121.009 120.159 94.2002 119.546 93.7163 117.674C54.5834 125.869 26.1936 149.807 26.1936 178.1Z" fill="#FF642D"/>
<path d="M33.4202 188.23C47.9377 165.131 82.7152 148.871 123.3 148.871C163.884 148.871 198.694 165.131 213.179 188.23" stroke="white" stroke-width="1.2" stroke-miterlimit="10" stroke-linecap="round" stroke-linejoin="round"/>
<path d="M80.5215 263.818C80.1989 263.753 79.844 263.785 79.5214 263.914C76.134 265.463 96.6844 272.238 110.912 273.173C126.881 274.238 142.334 269.721 138.334 268.302C129.655 268.592 120.203 269.044 109.782 268.27C99.1362 267.431 89.232 265.463 80.5215 263.818Z" fill="white"/>
<path d="M62.7132 169.518C62.9713 170.518 61.7454 171.68 60.0355 172.099C58.3257 172.518 56.6804 172.099 56.4223 171.131C56.1642 170.131 57.3901 168.97 59.1 168.518C60.8421 168.066 62.4551 168.518 62.7132 169.518Z" fill="#FF642D" stroke="white" stroke-width="1.2" stroke-miterlimit="10" stroke-linecap="round" stroke-linejoin="round"/>
<path d="M103.829 154.483C107.995 154.295 111.293 152.411 111.196 150.275C111.1 148.139 107.645 146.56 103.48 146.748C99.3147 146.936 96.0165 148.821 96.1131 150.956C96.2096 153.092 99.6644 154.671 103.829 154.483Z" stroke="white" stroke-width="1.2" stroke-miterlimit="10" stroke-linecap="round" stroke-linejoin="round"/>
<path d="M118.654 149.29C118.718 150.71 117.105 151.904 115.008 152C112.944 152.097 111.202 151.032 111.137 149.613C111.073 148.193 112.686 147 114.783 146.903C116.88 146.839 118.589 147.871 118.654 149.29Z" stroke="white" stroke-width="1.2" stroke-miterlimit="10" stroke-linecap="round" stroke-linejoin="round"/>
<path d="M86.7714 159.381C92.7893 158.129 97.2411 155.064 96.7149 152.534C96.1886 150.005 90.8835 148.97 84.8656 150.222C78.8477 151.474 74.3959 154.54 74.9221 157.069C75.4484 159.598 80.7535 160.633 86.7714 159.381Z" stroke="white" stroke-width="1.2" stroke-miterlimit="10" stroke-linecap="round" stroke-linejoin="round"/>
<path d="M96.4583 152.065C96.2325 151.71 96.1034 151.355 96.0712 150.968C95.9744 148.839 99.265 146.935 103.459 146.742C107.459 146.548 110.815 148 111.169 150" stroke="#FF642D" stroke-width="1.2" stroke-miterlimit="10" stroke-linecap="round" stroke-linejoin="round"/>
<path d="M111.17 149.613C111.105 148.193 112.718 147 114.815 146.903C116.88 146.806 118.622 147.871 118.686 149.29" stroke="#FF642D" stroke-width="1.2" stroke-miterlimit="10" stroke-linecap="round" stroke-linejoin="round"/>
<path d="M74.9726 157.388C74.4565 154.872 78.844 151.484 84.8768 150.226C90.458 149.065 95.4262 149.871 96.5554 152" stroke="#FF642D" stroke-width="1.2" stroke-miterlimit="10" stroke-linecap="round" stroke-linejoin="round"/>
<path d="M101.685 155.839C102.039 157.162 100.749 158.646 98.8134 159.13C96.8777 159.614 95.0388 158.969 94.7162 157.614C94.3613 156.291 95.6518 154.807 97.5874 154.323C99.4909 153.839 101.33 154.517 101.685 155.839Z" fill="#FF642D" stroke="white" stroke-width="1.2" stroke-miterlimit="10" stroke-linecap="round" stroke-linejoin="round"/>
<path d="M215.502 222.136C214.631 217.361 207.211 216.426 206.243 223.652" stroke="white" stroke-width="1.2" stroke-miterlimit="10" stroke-linecap="round" stroke-linejoin="round"/>
<path d="M202.985 235.266C196.888 235.428 194.823 234.234 194.307 232.073C192.532 224.652 211.502 221.394 211.276 225.362" stroke="white" stroke-width="1.2" stroke-miterlimit="10" stroke-linecap="round" stroke-linejoin="round"/>
<path d="M181.854 181.422C176.337 170.131 177.144 164.227 173.337 163.259C170.401 162.517 168.433 166.131 165.498 168.55C165.304 168.712 165.11 168.841 164.917 168.97C162.271 170.583 160.207 170.131 157.787 172.002C154.884 174.261 151.851 178.035 148.98 179.39C148.593 179.584 148.431 176.164 147.27 176.583C145.625 177.196 144.592 177.906 144.399 178.067C144.076 178.325 144.108 178.584 144.173 182.165C144.205 183.745 144.205 184.294 144.657 184.874C145.27 185.681 146.205 185.875 146.496 185.939C147.593 186.165 151.012 186.649 154.109 186.036C153.98 186.326 153.883 186.617 153.851 186.939C153.722 188.488 154.98 188.875 154.819 189.972C154.432 192.456 147.786 192.327 140.785 196.714C139.398 197.585 137.753 198.779 137.495 200.553C137.269 202.102 138.269 202.65 138.172 204.134C138.043 206.78 134.527 210.006 130.591 209.78C128.3 209.651 127.687 213.006 126.203 211.167C122.493 206.618 125.461 203.457 124.977 200.328C124.203 195.392 117.945 189.681 113.009 188.746C107.105 187.649 96.3618 192.327 94.7165 196.166C93.6841 198.553 94.9746 200.65 93.3292 202.36C89.0708 206.748 83.7154 204.554 79.8441 206.199C72.5208 209.328 65.3588 214.361 66.1008 216.523C66.8105 218.652 74.6177 216.329 74.779 218.458C75.0049 221.781 69.3914 222.975 63.8748 224.233C58.9065 225.33 69.5205 232.331 72.8111 229.459C73.2305 229.105 73.6499 228.782 74.1016 228.492C81.0377 224.265 89.3288 222.039 88.2642 218.716C87.8126 217.297 86.2963 216.458 86.6189 215.006C86.7802 214.297 87.3932 213.264 92.3937 211.554C98.4265 209.49 100.394 210.006 102.298 207.844C102.685 207.393 104.137 205.78 104.234 203.586C104.298 202.102 103.717 201.715 103.943 200.682C104.427 198.714 107.363 196.972 110.137 197.392C113.041 197.811 115.493 200.521 115.235 202.618C114.976 204.747 112.944 205.167 112.912 207.006C112.847 208.845 114.815 210.232 116.073 211.006C121.59 214.297 114.299 222.297 127.913 227.362C130.075 228.169 132.494 225.104 135.753 222.136C138.14 219.942 141.334 218.523 143.463 215.135C147.109 209.328 151.657 200.392 158.465 198.747C163.884 197.456 166.143 198.811 167.659 196.553C169.595 193.649 164.755 190.972 163.949 188.423C163.401 186.746 166.272 186.939 167.659 185.391C169.046 183.874 168.949 180.487 170.692 180.422C174.821 180.293 173.014 188.197 182.112 186.746C183.112 186.617 182.822 183.39 181.854 181.422Z" fill="black"/>
<path d="M60.8419 212.361C61.2291 211.845 60.8097 211.361 61.1645 210.522C61.4226 209.845 61.9065 209.683 62.7453 208.941C64.1971 207.651 63.8745 207.135 64.7133 206.618C66.0682 205.78 67.0361 207.102 69.4879 206.683C69.7783 206.618 72.5527 206.135 73.0689 204.328C73.1012 204.263 73.3915 203.199 72.8108 202.586C72.2301 201.973 71.23 202.328 68.8427 202.586C67.0038 202.779 66.778 202.65 65.7134 202.779C64.6487 202.908 58.4223 205.199 57.8094 207.296C57.1964 209.425 57.8739 211.909 58.7449 212.748C59.2611 213.232 60.4225 212.909 60.8419 212.361Z" fill="black"/>
<path d="M196.242 234.363C194.565 232.815 190.145 234.621 189.887 236.783C189.758 237.912 190.758 238.847 190.984 239.041C192.371 240.235 194.92 240.364 196.242 238.718C197.307 237.396 197.242 235.266 196.242 234.363Z" stroke="white" stroke-width="1.2" stroke-miterlimit="10" stroke-linecap="round" stroke-linejoin="round"/>
<path d="M70.8107 231.427C66.5522 229.621 62.5196 227.621 58.745 225.427C55.906 226.266 53.7123 227.362 53.3897 229.137C52.7444 232.46 56.1319 235.686 63.5842 236.557C66.8426 236.976 68.6169 234.073 70.8107 231.427Z" fill="white"/>
<path d="M123.3 120.513C148.141 120.513 171.401 126.772 188.79 138.128C205.437 149 214.599 163.195 214.599 178.1C214.599 193.004 205.437 207.199 188.79 218.071C171.369 229.427 148.109 235.686 123.3 235.686C98.4587 235.686 75.1984 229.427 57.8096 218.071C41.1628 207.199 32.0007 193.004 32.0007 178.1C32.0007 163.195 41.1628 149 57.8096 138.128C75.2306 126.772 98.4909 120.513 123.3 120.513ZM123.3 114.706C69.6494 114.706 26.1614 143.096 26.1614 178.1C26.1614 213.103 69.6494 241.493 123.3 241.493C176.95 241.493 220.6 213.103 220.6 178.1C220.6 143.096 176.95 114.706 123.3 114.706Z" fill="white"/>
<path d="M123.3 114.706C119.525 114.706 111.686 115.223 108.04 115.481C108.04 115.481 115.363 120.707 118.009 120.61C119.783 120.546 121.557 120.513 123.332 120.513C148.173 120.513 171.433 126.772 188.822 138.128C204.017 148.064 214.631 161.84 214.631 178.1L220.18 173.389C217.373 140.87 174.143 114.706 123.3 114.706Z" fill="#FF642D"/>
<path d="M202.017 140.935C184.37 125.03 155.69 114.706 123.332 114.706C96.2649 114.706 67.2621 120.965 42.1306 143.29" stroke="white" stroke-width="1.2" stroke-miterlimit="10" stroke-linecap="round" stroke-linejoin="round"/>
<path d="M32.6458 178.1C32.6458 163.195 41.1628 149 57.8095 138.128C75.2306 126.772 98.4909 120.513 123.3 120.513C148.141 120.513 171.401 126.772 188.79 138.128C205.437 149 214.599 163.195 214.599 178.1C214.599 186.971 210.469 195.553 204.34 203.36M63.7778 126.159C36.9365 140.677 26 159.356 26 178.1C26 185.358 27.5163 193.198 30.4843 199.424M211.05 207.425C217.986 198.489 220.438 187.907 220.438 178.067C220.438 146.484 185.048 120.288 138.721 115.481" stroke="#FF642D" stroke-width="1.2" stroke-miterlimit="10" stroke-linecap="round" stroke-linejoin="round"/>
<path d="M141.753 274.528C187.016 268.624 218.825 241.912 220.277 213.942L220.438 179.519C220.438 162.453 214.922 156.065 212.857 153.258" stroke="white" stroke-width="1.2" stroke-miterlimit="10" stroke-linecap="round" stroke-linejoin="round"/>
<path d="M150.658 81.5096C150.658 79.703 153.593 78.1545 157.239 77.5415C161.207 76.864 164.788 76.9285 164.853 77.7996C164.982 79.5739 161.465 80.1224 158.949 80.6063C154.819 81.4128 150.658 82.8323 150.658 81.5096Z" fill="white"/>
<path d="M286.284 161.388C299.607 161.388 308.318 158.904 309.899 153.742C313.576 141.741 276.863 119.836 227.923 104.867C199.953 96.3175 174.015 91.8332 156.239 91.8332C142.915 91.8332 134.204 94.3173 132.624 99.4791" stroke="white" stroke-width="1.2" stroke-miterlimit="10" stroke-linecap="round" stroke-linejoin="round"/>
<path d="M220.955 127.837C172.015 112.867 135.301 90.9622 138.979 78.961L130.43 106.641C126.752 118.675 163.433 140.548 212.406 155.517C261.346 170.486 304.027 172.906 307.705 160.904L316.254 133.224C312.576 145.225 269.895 142.838 220.955 127.837Z" fill="white" stroke="#FF642D" stroke-width="1.2" stroke-miterlimit="10" stroke-linecap="round" stroke-linejoin="round"/>
<path d="M304.318 147.71C304.673 146.516 303.576 145.387 302.382 145.709C301.318 146 300.253 146.258 299.124 146.484C298.575 146.613 300.35 147.613 299.092 148.355C282.864 157.807 226.02 149.774 221.665 145.193C221.181 144.709 220.697 145.967 220.6 146.484C219.955 149.484 253.248 163.679 293.897 161.582C297.64 161.388 300.898 158.904 301.963 155.291L304.318 147.71Z" fill="#FF642D"/>
<path d="M140.85 92.0913C137.85 92.6075 136.237 98.35 134.462 103.834C133.237 108.319 134.043 111.932 136.011 112.319C136.495 112.416 139.205 106.06 139.947 104.899C141.205 102.867 148.754 107.835 159.142 109.254C159.981 109.383 160.465 107.19 159.852 106.577C158.045 104.834 154.142 103.834 150.658 100.737C146.141 96.5756 142.012 91.9623 140.85 92.0913Z" fill="#FF642D"/>
<path d="M162.594 75.1864C180.757 75.1864 206.469 79.8643 233.149 88.0264C256.539 95.1884 277.799 104.125 293.026 113.19C300.124 117.416 305.672 121.578 309.06 125.224C311.705 128.063 312.996 130.611 312.576 132.063C312.028 133.902 307.189 136.967 292.671 136.967C274.508 136.967 248.796 132.289 222.116 124.127C198.727 116.965 177.467 108.028 162.239 98.9629C155.142 94.7367 149.593 90.575 146.205 86.9295C143.56 84.0905 142.27 81.5419 142.689 80.0901C143.237 78.2835 148.044 75.1864 162.594 75.1864ZM162.594 71.3151C149.27 71.3151 140.56 73.7992 138.979 78.961C135.301 90.9944 172.014 112.867 220.955 127.837C248.925 136.386 274.863 140.87 292.639 140.87C305.963 140.87 314.673 138.386 316.254 133.224C319.932 121.223 283.219 99.3178 234.279 84.3486C206.276 75.7671 180.338 71.3151 162.594 71.3151Z" fill="white" stroke="#FF642D" stroke-width="1.2" stroke-miterlimit="10" stroke-linecap="round" stroke-linejoin="round"/>
<path d="M289.606 133.386C288.993 113.997 262.797 104.222 261.249 102.641C260.023 101.383 261.862 101.157 262.733 101.383C274.185 104.512 299.543 118.804 305.156 129.676C304.414 134.289 290.413 134.934 289.606 133.386Z" fill="white"/>
<path d="M259.055 95.4142L261.733 96.4466C269.443 96.8337 292.671 102.576 315.706 84.5099C322.158 83.5421 328.643 82.5743 335.095 81.5742L327.836 13.1482C318.674 14.9871 309.512 12.0191 300.35 13.8257C284.929 16.6324 236.279 3.5021 198.598 32.0532C169.272 54.2812 158.465 91.8655 172.757 98.5758" fill="#FF642D"/>
<path d="M232.02 56.6363C236.763 64.8306 243.925 66.6372 246.99 70.186C248.957 72.4765 248.99 77.6706 251.409 81.1548C254.7 85.9294 260.346 89.1233 262.249 92.1236C255.345 92.5107 247.506 92.6397 240.602 93.0269L230.407 85.8972L216.696 73.1862L218.826 64.2499C222.342 62.2497 228.472 58.6365 232.02 56.6363Z" fill="black"/>
<path d="M259.055 95.4142L261.733 96.4466C269.443 96.8337 292.671 102.576 315.706 84.5099C322.158 83.5421 328.642 82.5743 335.095 81.5742L327.933 9.08328C318.771 10.9222 309.512 12.0191 300.349 13.8579C285.09 17.0195 236.279 3.53436 198.598 32.0855C169.272 54.3135 157.497 93.3495 173.95 99.1242" stroke="black" stroke-width="1.2" stroke-miterlimit="10" stroke-linecap="round" stroke-linejoin="round"/>
<path d="M199.178 60.7334L179.015 92.672L192.307 102.641L209.147 66.5405L199.178 60.7334Z" fill="black" stroke="black" stroke-width="1.2" stroke-miterlimit="10" stroke-linecap="round" stroke-linejoin="round"/>
<path d="M192.307 102.641C193.049 100.221 192.114 96.9305 189.694 94.3496C186.5 90.8977 181.919 89.9298 179.499 92.1881C179.338 92.3494 179.177 92.5107 179.048 92.672L146.819 143.709L166.724 157.582L192.307 102.641Z" fill="white"/>
<path d="M158.11 135.676L182.5 90.9622C181.338 91.0267 180.306 91.4138 179.499 92.1558C179.338 92.3172 179.177 92.4785 179.048 92.6398L151.884 135.644H158.11V135.676Z" fill="#FF642D"/>
<path d="M171.563 134.934L175.176 127.288C173.402 128.998 171.498 130.45 169.466 131.547L166.788 136.999L170.563 135.805C171.014 135.676 171.369 135.354 171.563 134.934Z" fill="white"/>
<path d="M166.659 157.904L192.339 102.641C192.662 101.608 192.662 100.382 192.371 99.1565C188.339 107.125 175.305 141.774 154.335 131.837L152.368 134.966L147.044 143.322L166.659 157.904Z" fill="black"/>
<path d="M171.563 134.934L175.176 127.288C173.402 128.998 171.498 130.45 169.466 131.547L166.788 136.999L170.563 135.805C171.014 135.676 171.369 135.354 171.563 134.934Z" fill="white"/>
<path d="M175.208 127.288L186.532 103.447C187.08 102.221 185.951 99.6082 185.951 99.6082C185.854 99.2533 185.338 99.221 185.209 99.5759L169.53 131.579C171.53 130.45 173.434 128.998 175.208 127.288Z" fill="#FF642D"/>
<path d="M231.73 90.9622V93.0592C231.31 95.6401 231.601 99.6405 236.827 100.447C247.667 102.189 262.184 101.479 262.184 94.3174C262.184 92.1881 260.12 87.2522 242.666 86.0262C241.247 85.2197 239.827 84.4454 238.408 83.6389" fill="#FF642D"/>
<path d="M231.73 93.0592C230.794 97.1563 233.246 99.8985 236.827 100.447C244.925 101.737 255.152 101.673 259.733 98.5436C261.313 97.5112 233.859 98.5758 231.73 93.0592Z" fill="white"/>
<path d="M231.73 90.9622V93.0592C231.31 95.6401 231.601 99.6405 236.827 100.447C247.667 102.189 262.184 101.479 262.184 94.3174C262.184 92.1881 260.12 87.2522 242.666 86.0262C241.247 85.2197 239.827 84.4454 238.408 83.6389" stroke="black" stroke-width="1.2" stroke-miterlimit="10" stroke-linecap="round" stroke-linejoin="round"/>
<path d="M199.759 86.6714C200.082 87.2521 202.211 91.2525 207.05 92.3817C212.309 93.6076 216.245 90.446 216.696 90.0911C224.342 83.4453 234.924 73.7024 227.052 68.0567C222.439 64.7338 214.793 67.1212 206.018 81.7032" fill="#FF642D"/>
<path d="M214.115 87.4457L216.696 90.0911C219.89 92.672 226.729 95.9949 234.666 91.8655C247.667 85.0906 248.538 76.2833 244.763 73.1217C241.376 70.2828 235.375 71.5732 229.601 74.4767C226.665 74.9284 223.729 75.38 220.793 75.8317" fill="#FF642D"/>
<path d="M201.856 89.4459C202.792 90.0266 204.502 91.8332 207.051 92.3494C212.341 93.4463 216.245 90.4137 216.697 90.0589C223.794 83.897 233.472 74.9929 228.407 69.2504C228.053 68.831 225.762 84.768 201.856 89.4459Z" fill="white"/>
<path d="M216.696 90.0911C223.729 95.7046 231.085 93.7366 234.666 91.8655C244.893 86.5424 247.602 79.9611 246.473 75.8317C246.183 74.7026 240.311 93.0269 216.696 90.0911Z" fill="white"/>
<path d="M199.759 86.6714C200.082 87.2521 202.211 91.2525 207.05 92.3817C212.309 93.6076 215.729 90.9622 216.696 90.0911C224.342 83.4453 234.924 73.7024 227.052 68.0567C222.439 64.7338 214.793 67.1212 206.018 81.7032" stroke="black" stroke-width="1.2" stroke-miterlimit="10" stroke-linecap="round" stroke-linejoin="round"/>
<path d="M216.696 90.0911C219.89 92.672 226.73 95.9949 234.666 91.8655C247.667 85.0906 248.538 76.2833 244.764 73.1217C241.376 70.2828 235.376 71.5732 229.601 74.4767" stroke="black" stroke-width="1.2" stroke-miterlimit="10" stroke-linecap="round" stroke-linejoin="round"/>
<path d="M225.665 21.9555C220.858 32.5694 184.048 61.8303 188.081 72.6056C191.759 85.1874 236.118 56.9266 244.215 51.0228C248.474 53.4747 256.604 57.6364 265.895 58.5074C283.219 60.1527 296.156 52.281 300.35 49.442" fill="#FF642D"/>
<path d="M291.51 54.2812C291.575 54.2489 285.219 54.8942 277.735 54.0231C263.798 52.4101 251.184 46.1837 244.022 46.7321C234.214 46.6676 194.598 77.0576 188.823 66.0888C179.983 92.7043 236.086 56.9266 244.183 51.0228C268.024 65.121 287.026 55.9911 291.51 54.2812Z" fill="white"/>
<path d="M234.537 24.4396C218.503 31.3758 184.048 61.7981 188.049 72.6056C191.726 85.1874 236.086 56.9266 244.183 51.0228C248.442 53.4747 256.571 57.6364 265.863 58.5074C276.315 59.5075 285.187 57.0234 291.51 54.2812" stroke="black" stroke-width="1.2" stroke-miterlimit="10" stroke-linecap="round" stroke-linejoin="round"/>
<path d="M300.317 13.8257C309.609 28.2464 317.577 72.1216 315.706 84.4777C323.384 83.3485 335.192 82.0581 342.87 80.8967C343.193 71.4441 337.192 18.1487 327.933 9.05103C318.771 10.9222 309.48 11.9868 300.317 13.8257Z" fill="black" stroke="black" stroke-width="1.2" stroke-miterlimit="10" stroke-linecap="round" stroke-linejoin="round"/>
<path d="M324.026 24.6334C324.397 22.347 322.844 20.1928 320.558 19.8217C318.271 19.4506 316.117 21.0033 315.746 23.2897C315.375 25.576 316.928 27.7303 319.214 28.1014C321.5 28.4725 323.655 26.9198 324.026 24.6334Z" fill="white"/>
<path d="M198.565 88.349L198.824 88.6716L201.146 83.6712L198.824 82.6388L198.565 88.349Z" stroke="black" stroke-width="1.2" stroke-miterlimit="10" stroke-linecap="round" stroke-linejoin="round"/>
<path d="M165.068 160.065C168.622 156.771 167.723 150.021 163.06 144.991C158.397 139.96 151.735 138.552 148.181 141.847C144.627 145.141 145.526 151.89 150.189 156.921C154.852 161.952 161.514 163.36 165.068 160.065Z" fill="black"/>
<path d="M153.981 139.709C156.916 140.096 160.078 141.774 162.659 144.548C167.305 149.581 168.208 156.323 164.659 159.614C161.11 162.905 154.432 161.517 149.787 156.485C145.851 152.258 144.367 147.032 146.399 143.161" stroke="white" stroke-width="1.2" stroke-miterlimit="10" stroke-linecap="round" stroke-linejoin="round"/>
<path d="M154.271 139.547L154.658 140.193C157.594 140.58 160.465 142.193 163.046 144.967C164.53 146.58 165.627 148.355 166.337 150.161C172.079 148.097 163.949 138.483 154.271 139.547Z" fill="white"/>
<path d="M147.625 147.742C148.044 148.226 149.012 149.419 149.27 151.226C149.657 153.968 148.077 155.968 147.786 156.323" stroke="white" stroke-width="1.2" stroke-miterlimit="10" stroke-linecap="round" stroke-linejoin="round"/>
<path d="M160.82 156.614C160.175 157.13 159.465 157.743 158.787 158.517C156.852 160.679 155.916 162.937 155.4 164.518" stroke="white" stroke-width="1.2" stroke-miterlimit="10" stroke-linecap="round" stroke-linejoin="round"/>
<path d="M155.379 164.51C156.986 163.02 156.591 159.98 154.495 157.719C152.4 155.459 149.398 154.834 147.791 156.323C146.184 157.813 146.579 160.854 148.675 163.114C150.77 165.375 153.772 166 155.379 164.51Z" fill="black" stroke="white" stroke-width="1.2" stroke-miterlimit="10" stroke-linecap="round" stroke-linejoin="round"/>
<path d="M153.336 158.807C154.594 160.162 154.82 162.001 153.884 162.872C152.916 163.776 151.142 163.389 149.884 162.034C148.625 160.679 148.4 158.84 149.335 157.969C150.271 157.098 152.077 157.452 153.336 158.807Z" stroke="black" stroke-width="1.2" stroke-miterlimit="10" stroke-linecap="round" stroke-linejoin="round"/>
<path d="M151.238 162.292C151.593 167.002 148.948 171.744 148.948 176.616C148.948 180.842 150.722 183.294 152.626 183.068C160.175 182.229 150.819 164.743 153.819 160.872" fill="black"/>
<path d="M152.819 182.455C159.368 181.842 154.658 171.776 154.045 165.292" stroke="white" stroke-width="1.2" stroke-miterlimit="10" stroke-linecap="round" stroke-linejoin="round"/>
<path d="M152.335 180.874C152.206 179.874 152.884 178.39 152.884 177.099C152.852 173.131 152.4 169.002 151.206 170.002C151.206 170.002 147.69 181.035 152.626 183.068C152.819 183.036 152.981 183.003 153.142 182.971C152.755 182.713 152.465 181.906 152.335 180.874Z" fill="white"/>
<path d="M194.63 89.3169C188.403 82.6065 179.499 80.7031 174.725 85.1229C171.015 88.5748 170.918 94.8335 174.015 100.608L179.015 92.672C179.144 92.5107 179.306 92.3171 179.467 92.1881C181.919 89.9298 186.468 90.8977 189.662 94.3496C192.081 96.9628 193.017 100.221 192.275 102.641L188.081 111.609C191.597 112.287 194.92 111.642 197.243 109.48C202.05 105.06 200.856 96.0594 194.63 89.3169Z" fill="black"/>
<path d="M182.145 82.0904C186.403 82.5098 191.307 84.8003 195.017 88.8007C197.888 91.8978 199.888 95.5433 200.727 99.092" stroke="#FF642D" stroke-width="1.2" stroke-miterlimit="10" stroke-linecap="round" stroke-linejoin="round"/>
</svg>
